<svg id="Layer_1" data-name="Layer 1" xmlns="http://www.w3.org/2000/svg" viewBox="0 0 300 77.00915">
  <defs>
    <style>
      .cls-1 {
        fill: #008c49;
      }
    </style>
  </defs>
  <title>Artboard 1 copy 5Generosity-Logo</title>
  <g>
    <g>
      <path class="cls-1" d="M62.58088,29.41315H71.6188v.72158a14.93346,14.93346,0,0,1-.58021,4.36318,9.27664,9.27664,0,0,1-1.91293,3.28716,9.90719,9.90719,0,0,1-7.74881,3.42781,10.65185,10.65185,0,0,1-7.862-3.31388,10.992,10.992,0,0,1-3.27309-7.99073A11.36517,11.36517,0,0,1,61.67434,18.50519a11.08525,11.08525,0,0,1,4.788,1.0479,13.827,13.827,0,0,1,4.17963,3.39968l-2.35179,2.25192a7.98351,7.98351,0,0,0-6.55884-3.58394,7.83858,7.83858,0,0,0-5.8225,2.394A7.99469,7.99469,0,0,0,53.557,29.90827a8.217,8.217,0,0,0,7.93306,8.21719,6.59515,6.59515,0,0,0,4.37725-1.64428,5.84276,5.84276,0,0,0,2.16753-3.96654h-5.454Z"/>
      <path class="cls-1" d="M89.84094,22.03147H81.07237v5.25635h8.514v3.1029h-8.514v7.31h8.76857v3.10149H77.77115V18.93H89.84094Z"/>
      <path class="cls-1" d="M96.17824,40.80216V17.44182l15.95193,16.689V18.93h3.30052V42.13419L99.47947,25.48882V40.80216Z"/>
      <path class="cls-1" d="M134.74292,22.03147h-8.76857v5.25635h8.514v3.1029h-8.514v7.31h8.76857v3.10149H122.67313V18.93h12.06979Z"/>
      <path class="cls-1" d="M148.48934,31.48081l6.77194,9.32135h-4.03756l-6.24729-8.95282h-.595v8.95282h-3.30122V18.93h3.86807q4.3347,0,6.26135,1.62881a5.98607,5.98607,0,0,1,2.12463,4.788,6.21457,6.21457,0,0,1-1.33132,3.99466A5.92969,5.92969,0,0,1,148.48934,31.48081Zm-4.10789-2.50791h1.0479q4.68915,0,4.68951-3.58395,0-3.35678-4.56152-3.35748h-1.17589Z"/>
      <path class="cls-1" d="M158.96267,29.76761a10.71644,10.71644,0,0,1,3.38632-7.93447,11.14214,11.14214,0,0,1,8.10326-3.31388,11.43857,11.43857,0,0,1,11.375,11.37494,10.75745,10.75745,0,0,1-3.37156,8.0048,11.55841,11.55841,0,0,1-15.781.36712A10.74473,10.74473,0,0,1,158.96267,29.76761Zm3.32936.0422a7.90445,7.90445,0,0,0,2.43688,5.96386,8.07,8.07,0,0,0,11.40378-.0422,8.06,8.06,0,0,0,2.36586-5.8654,8.0179,8.0179,0,0,0-2.33773-5.8654,8.15664,8.15664,0,0,0-11.517,0A7.895,7.895,0,0,0,162.292,29.80981Z"/>
      <path class="cls-1" d="M200.34682,22.1876l-2.67741,1.58661a4.61183,4.61183,0,0,0-1.43048-1.69914,3.33832,3.33832,0,0,0-1.82784-.45432,3.379,3.379,0,0,0-2.28076.77924,2.41867,2.41867,0,0,0-.90653,1.927q0,1.60139,2.37992,2.57825l2.18159.89317a9.31587,9.31587,0,0,1,3.8962,2.62748,5.92142,5.92142,0,0,1,1.23216,3.80336,6.684,6.684,0,0,1-2.0114,4.9863,6.90588,6.90588,0,0,1-5.02919,1.98327,6.72629,6.72629,0,0,1-4.70288-1.68508,7.76229,7.76229,0,0,1-2.28146-4.74577l3.34342-.737a5.68566,5.68566,0,0,0,.79331,2.66264,3.76735,3.76735,0,0,0,5.53908.38259,3.5766,3.5766,0,0,0,1.02047-2.62045,3.69788,3.69788,0,0,0-.17723-1.16886,2.97083,2.97083,0,0,0-.55278-.97757,4.45077,4.45077,0,0,0-.97054-.8355,9.44125,9.44125,0,0,0-1.41642-.74408l-2.11056-.8777q-4.49082-1.89887-4.49118-5.55314a5.27055,5.27055,0,0,1,1.8841-4.12266,6.80986,6.80986,0,0,1,4.68951-1.671A6.54722,6.54722,0,0,1,200.34682,22.1876Z"/>
      <path class="cls-1" d="M210.197,18.93V40.80216h-3.30122V18.93Z"/>
      <path class="cls-1" d="M223.48914,22.03147V40.80216h-3.30052V22.03147h-5.0292V18.93h13.34485v3.10149Z"/>
      <path class="cls-1" d="M239.28916,31.35422,232.1494,18.93h3.79634l5.00106,8.74043L245.96193,18.93h3.79634l-7.16859,12.42424v9.44794h-3.30052Z"/>
    </g>
    <g>
      <g>
        <path class="cls-1" d="M39.09465,31.82261H13.16872a1.65272,1.65272,0,0,1,0-3.30544H39.09465a1.65272,1.65272,0,0,1,0,3.30544Z"/>
        <path class="cls-1" d="M40.535,23.661H23.73137a1.65272,1.65272,0,0,1,0-3.30544H40.535a1.65272,1.65272,0,1,1,0,3.30544Z"/>
        <path class="cls-1" d="M40.535,39.985H23.73137a1.65273,1.65273,0,0,1,0-3.30545H40.535a1.65273,1.65273,0,0,1,0,3.30545Z"/>
      </g>
      <g>
        <path class="cls-1" d="M286.83128,31.82261H260.90535a1.65272,1.65272,0,1,1,0-3.30544h25.92593a1.65272,1.65272,0,0,1,0,3.30544Z"/>
        <path class="cls-1" d="M276.26863,39.985H259.465a1.65273,1.65273,0,0,1,0-3.30545h16.80361a1.65273,1.65273,0,0,1,0,3.30545Z"/>
        <path class="cls-1" d="M276.26863,23.661H259.465a1.65272,1.65272,0,1,1,0-3.30544h16.80361a1.65272,1.65272,0,1,1,0,3.30544Z"/>
      </g>
    </g>
    <g>
      <g>
        <path class="cls-1" d="M100.41519,54.66815h2.16893v.86715a4.52486,4.52486,0,0,1,1.0704-.88685,2.60135,2.60135,0,0,1,1.18574-.24122,2.87824,2.87824,0,0,1,2.51636,1.38828,3.25748,3.25748,0,0,1,2.76743-1.38828q3.17112,0,3.17182,3.847v5.80422h-2.17878V58.84215a4.01933,4.01933,0,0,0-.32844-1.90872,1.18822,1.18822,0,0,0-1.10837-.569,1.41514,1.41514,0,0,0-1.30671.67515,4.35021,4.35021,0,0,0-.40931,2.16894v4.84986h-2.17878V58.87168q0-2.50756-1.44666-2.50721a1.4506,1.4506,0,0,0-1.33554.685,4.27192,4.27192,0,0,0-.41916,2.15909v4.84986h-2.16893Z"/>
        <path class="cls-1" d="M130.8548,54.66815h2.17878v9.39027H130.8548v-.9832a4.16621,4.16621,0,0,1-6.10311-.15472,5.23358,5.23358,0,0,1-1.2631-3.586,5.07383,5.07383,0,0,1,1.2631-3.51925,4.07186,4.07186,0,0,1,3.162-1.408,3.99356,3.99356,0,0,1,2.94114,1.3503Zm-5.14875,4.6663a3.27149,3.27149,0,0,0,.723,2.19776,2.36719,2.36719,0,0,0,1.87074.858,2.48752,2.48752,0,0,0,1.94739-.82917,3.56729,3.56729,0,0,0,0-4.35756,2.45568,2.45568,0,0,0-1.9284-.839,2.39857,2.39857,0,0,0-1.87.84887A3.12551,3.12551,0,0,0,125.70605,59.33445Z"/>
        <path class="cls-1" d="M143.67008,54.66815H145.839v.83831a4.13813,4.13813,0,0,1,1.06055-.858,2.43682,2.43682,0,0,1,1.11823-.24122,3.5035,3.5035,0,0,1,1.79338.55981l-.993,1.98608a2.06847,2.06847,0,0,0-1.20473-.44377q-1.77439,0-1.77439,2.68022v4.86885h-2.16893Z"/>
        <path class="cls-1" d="M161.421,47.77454v9.93039l3.05648-3.03678h2.9116l-4.07835,3.94262,4.37725,5.44765h-2.81525l-3.10431-3.96232-.34742.34672v3.6156h-2.16893V47.77454Z"/>
        <path class="cls-1" d="M185.21739,59.87387h-6.729a2.85,2.85,0,0,0,.75181,1.8419,2.29146,2.29146,0,0,0,1.70617.67445,2.21874,2.21874,0,0,0,1.34046-.3854,5.48038,5.48038,0,0,0,1.18574-1.427l1.83206,1.02187a7.26432,7.26432,0,0,1-.89669,1.23919,4.75978,4.75978,0,0,1-1.01273.84816,4.05257,4.05257,0,0,1-1.16605.48738,5.6941,5.6941,0,0,1-1.35945.154,4.42011,4.42011,0,0,1-3.37436-1.34961,5.06247,5.06247,0,0,1-1.27295-3.60645,5.202,5.202,0,0,1,1.23427-3.60574,4.70183,4.70183,0,0,1,6.575-.038,5.19549,5.19549,0,0,1,1.19558,3.63458Zm-2.22661-1.77369a2.07872,2.07872,0,0,0-2.18862-1.73571,2.25281,2.25281,0,0,0-.74267.121,2.13488,2.13488,0,0,0-.63155.34672,2.20807,2.20807,0,0,0-.48668.545,2.53248,2.53248,0,0,0-.30874.723Z"/>
        <path class="cls-1" d="M197.89763,56.6922v7.36622h-2.16894V56.6922h-.92552V54.66815h.92552V51.22556h2.16894v3.44259h1.68718V56.6922Z"/>
      </g>
      <g>
        <path class="cls-1" d="M89.926,60.05672h-6.7213a1.08025,1.08025,0,0,1,0-2.16049H89.926a1.08025,1.08025,0,1,1,0,2.16049Z"/>
        <path class="cls-1" d="M216.79527,60.05672H210.074a1.08025,1.08025,0,1,1,0-2.16049h6.7213a1.08025,1.08025,0,0,1,0,2.16049Z"/>
      </g>
    </g>
  </g>
</svg>
