<svg id="Layer_1" data-name="Layer 1" xmlns="http://www.w3.org/2000/svg" viewBox="0 0 300 198.0051">
  <defs>
    <style>
      .cls-1 {
        fill: #fff;
      }
    </style>
  </defs>
  <title>Artboard 1 copy 7Generosity-Logo</title>
  <g>
    <path class="cls-1" d="M183.20943,51.98718a17.26613,17.26613,0,0,0-7.25189-10.17212V39.01752a9.4472,9.4472,0,0,0-7.7746-9.28516V15.681a1.65708,1.65708,0,0,0-3.31415,0V29.73236a9.44726,9.44726,0,0,0-7.77459,9.28516v2.79754a17.334,17.334,0,0,0-2.47364,1.97406c-1.52228-.11127-3.05822-.16791-4.69861-.16791A70.23048,70.23048,0,0,0,99.516,162.79l.033.03393q.39432.40577.795.80524l.03174.03149q.18632.18558.37409.36969l.03411.03345q.39818.39.80256.77374l.05767.05469a70.68507,70.68507,0,0,0,13.01819,9.75354l.08014.04645q.15555.09036.31152.18l.11145.06366q.14082.08048.28193.16034l.12762.072q.134.07534.26843.15027l.13575.07544q.13173.073.26391.14545l.13806.07556q.13422.07325.26886.14581c.04407.0238.08808.04773.1322.07141q.14731.07911.29517.15747l.10565.05622q.202.10683.40454.21234h.00006q2.51277,1.30791,5.14026,2.41559l.01111.00469q.1983.0835.39722.16584l.01745.0072q.1962.08112.393.16113l.02063.00836q.19593.07956.3924.158l.02062.00818q.19731.07874.39515.15619l.01764.0069q.2.07827.40057.15533l.01306.005q.20352.07818.40759.15509l.007.00262q3.025,1.13956,6.17658,2.00354h.00018q.2037.05576.4079.11029l.0047.00122q.20316.0543.40674.1073l.00586.00153q.20352.053.40747.1048l.00549.0014q.20444.05192.40948.1026l.004.001q.20564.05089.41181.10058l.00262.00061q.20691.04981.41431.09845l.00079.00019q2.97932.69844,6.051,1.13934l.01654.00238q.17633.02517.353.04944l.03748.00512q.175.024.35016.04712l.02319.00306q.74194.0975,1.48871.17962l.01245.00141q.16.01756.32019.03424l.08789.00921q.14785.01539.29578.03l.111.01093q.143.014.28626.02746l.11737.01087q.14319.01319.2865.02588l.10095.00872q.47112.04065.94391.0752l.14367.0105q.11985.00851.23987.01642.08918.006.17835.0119.11388.00741.22784.01434l.19257.01166q.10949.0064.21911.01257.10281.00577.20563.01111.10437.00558.2088.01087.11417.00576.22846.01092c.06256.00293.12506.006.18768.00873q.19391.0085.38806.016l.14172.00513q.14832.0054.29676.01037l.16784.00507q.12836.00384.25684.00732l.17584.00434q.126.003.25214.00561l.17444.00336q.12972.0023.25964.00409c.05518.00079.11035.00165.16553.00226q.14245.00174.28509.00274l.13971.00116q.21222.0012.42468.00135t.42469-.00135l.13971-.00116q.14255-.0011.285-.00274c.05524-.00061.11041-.00147.16559-.00226q.12992-.00183.25964-.00409l.17444-.00336q.12607-.00257.25214-.00561l.17578-.00434q.12853-.00338.2569-.00732l.16784-.00507q.1485-.00485.29669-.01037l.142-.00513q.1941-.0075.38782-.016c.06268-.00275.12524-.0058.18787-.00873q.11416-.00531.22827-.01092.10455-.00522.20886-.01087.1029-.0054.20557-.01111.10968-.006.21917-.01257.09632-.00567.19251-.01166.11408-.007.228-.01434.08909-.00577.17817-.0119.12-.00805.24-.01642l.14337-.0105q.47305-.03451.94427-.07526l.10089-.0086q.14337-.01265.28656-.02594l.11725-.01081q.14328-.01346.28638-.02752l.11084-.01093q.148-.01473.296-.03l.08764-.00921q.16032-.01675.32038-.03424l.01214-.00135q.747-.082,1.4892-.17975l.02289-.003q.17532-.02307.35034-.04712l.03735-.00512q.17661-.02427.353-.04944l.0166-.00238q1.12355-.16068,2.23548-.35663l.00012-.00006q1.572-.27695,3.11987-.62317l.0199-.00445q.19711-.04413.39386-.08948l.02368-.00537q.1983-.04569.39618-.09259l.01923-.00452q.20187-.04779.40325-.0968l.0102-.00244q.20618-.05018.4118-.10157l.00018-.00006q3.09064-.77206,6.06952-1.81323l.00342-.00116q.20673-.07214.41284-.14557l.00586-.00207q.20481-.073.409-.14716l.00848-.00305q.203-.0738.40546-.14874l.01013-.00379q.20224-.075.40381-.15106l.00946-.0036q.20225-.07635.40375-.15393l.008-.00311q.20271-.078.40479-.15729l.00537-.00208q2.49107-.97733,4.88751-2.136l.00031-.00013q.20325-.09823.4057-.19775l.07269-.03589q.16653-.082.33258-.16492l.10053-.05041q.15243-.07635.30444-.15344l.11273-.05738q.14649-.0747.2926-.15l.11664-.0603q.1452-.07525.29-.15113l.11444-.06q.14877-.07828.297-.15729l.10351-.05512q.16068-.08588.32081-.1726l.0769-.04157q3.06271-1.6626,5.93665-3.61358l.066-.04493q.17-.11571.33935-.2323l.07233-.04986q.17853-.12324.35626-.24756l.03949-.02759q.613-.42957,1.21649-.8717l.03156-.0232q.185-.13576.36914-.2727l.03686-.02741a70.81945,70.81945,0,0,0,6.333-5.31756l.02447-.02326q.18861-.17825.3758-.358l.05169-.04956q.39762-.38223.78925-.77063l.06-.05969q.17423-.17313.34723-.34747l.044-.04425q.19519-.19711.389-.39576l.02777-.02862q.17358-.17835.34589-.35785l.07409-.07721a70.80162,70.80162,0,0,0,6.69275-8.12085q.33747-.4779.66718-.96155l.00043-.00067q.49218-.72207.96673-1.45685l.00867-.01349a70.245,70.245,0,0,0-25.78821-99.90295ZM98.72505,120.8114v36.16772A66.91528,66.91528,0,0,1,149.922,46.9367c.73383,0,1.41864.012,2.08765.03559a17.10312,17.10312,0,0,0-2.6886,9.22613V88.9046a9.44781,9.44781,0,0,0-7.63281,9.25946v42.46509a15.06335,15.06335,0,0,0-2.88873-.53858V84.60632a14.81348,14.81348,0,0,0-29.627,0V111.435a9.4342,9.4342,0,0,0-10.44745,9.3764Zm15.54706,2.37659h-2.66723a1.65778,1.65778,0,1,0,0,3.31555h2.66723v3.4411h-2.66723a1.65778,1.65778,0,1,0,0,3.31555h2.66723v3.44043h-2.66723a1.65778,1.65778,0,1,0,0,3.31555h2.66723v3.44043h-2.66723a1.65775,1.65775,0,1,0,0,3.31549h2.66723v3.44043h-2.66723a1.65778,1.65778,0,1,0,0,3.31555h2.66723v3.44043h-2.66723a1.65778,1.65778,0,1,0,0,3.31556h2.66723v3.4411h-2.66723a1.65778,1.65778,0,1,0,0,3.31555h2.66723v3.49139a67.431,67.431,0,0,1-12.2315-9.89953V120.8114a6.11634,6.11634,0,0,1,7.13189-6.03052q.30048.05044.59058.1297l.002.00055q.28666.07828.56177.18317l.01135.00433q.05209.02.10364.04077l.007.00281q.161.06537.3175.13947l.00446.00207q.04651.02215.09259.045l.024.012q.04422.02215.08813.045l.02124.01123q.13889.07306.27338.153l.02569.01525c.02546.01526.05072.03083.07593.04645l.03571.02234c.02435.01532.04858.0307.07269.04639l.035.02307q.11867.07818.2334.1618l.03986.02912.06232.04681.04309.03308.06.04694.04377.03528q.03644.02947.07257.05951c.0252.02105.05041.04217.07525.06366l.05377.04724.0456.0404.05273.04822.0448.04169.05152.04889.045.04394.04932.04859a6.09546,6.09546,0,0,1,1.784,4.31274Zm8.04975,31.99859V174.8772q-2.41965-1.09927-4.7342-2.382V120.8114a9.441,9.441,0,0,0-5.0996-8.37573V84.60632a11.49792,11.49792,0,0,1,22.97723-.654h-7.75885a1.65778,1.65778,0,1,0,0,3.31555h7.77747v4.01538h-7.77747a1.65778,1.65778,0,1,0,0,3.31555h7.77747v4.01532h-7.77747a1.65778,1.65778,0,0,0,0,3.31556h7.77747V105.945h-7.77747a1.65778,1.65778,0,1,0,0,3.31555h7.77747v4.01538h-7.77747a1.65775,1.65775,0,1,0,0,3.31549h7.77747v4.01538h-7.77747a1.65778,1.65778,0,1,0,0,3.31555h7.77747v4.01605h-7.77747a1.65778,1.65778,0,0,0,0,3.31556h7.77747v4.01532h-7.77747a1.65778,1.65778,0,1,0,0,3.31555h7.77747v1.57885A15.177,15.177,0,0,0,122.32186,155.18658Zm26.99139,25.64447q-2.91083-.02609-5.75989-.29748V151.90838a1.65778,1.65778,0,0,0-3.31555,0v28.22706q-2.801-.40759-5.52429-1.04395V151.90838a1.65778,1.65778,0,0,0-3.31555,0v26.31916q-2.93737-.847-5.76056-1.951v-21.09q0-.073.00091-.14569l.0008-.0451.00189-.10016.00153-.05445.00293-.09039.00225-.058.00391-.08679.003-.05909.00494-.08593.00367-.0586.0061-.087.00421-.0567.00751-.09137.00439-.05134.0102-.10638.00347-.03583q.00724-.07113.01539-.14209l.00323-.02734c.00446-.038.009-.07587.01379-.11371l.00654-.0495.0122-.09125.00794-.05542.01245-.085.00891-.05774.01318-.08239.00971-.05848.0141-.08184.01025-.05762.0155-.08368.01038-.05487.01776-.0893.00977-.04852c.00775-.03778.0158-.07544.02392-.1131l.00513-.024q.01493-.06812.03058-.136l.01-.04242.02221-.09332.01325-.05335.02057-.082.01477-.05676.02069-.07825.01581-.058.02124-.07654.01654-.05823.02221-.07617.017-.05749.02369-.0777.017-.055.02674-.08393.01532-.04791q.02115-.06473.0429-.12909l.0102-.02954q.01721-.05035.03479-.10059l.01867-.05218.02784-.07733.02111-.05707.02686-.07184.02246-.05878.027-.06964.0235-.05938.02746-.0683.02423-.05945.02839-.06812.02465-.05859.02973-.069.02472-.05689.033-.07409.0227-.05084q.02729-.06006.05518-.11982l.02527-.0534.03308-.06964.02868-.059.03107-.0633.03034-.0606.0307-.0608.03155-.0614.03089-.05932.03247-.06147.03125-.05834.03338-.06153.03162-.05737.0343-.06165.03186-.05609.03528-.06195.03113-.05334q.03717-.06354.075-.12659l.02777-.04633.03979-.06475.03107-.05036.04-.06366.03192-.05035.04077-.06336.03235-.04974.04175-.06323.03235-.04853.043-.06366.032-.04681.04456-.06445.03094-.04407.04682-.06622.027-.03754q.09248-.12826.18811-.25409l.01789-.02356.05438-.07043.02777-.03571.05261-.06659.03052-.03833.05274-.06524.03125-.03833.05352-.06482.03119-.0373.05518-.06543.02936-.0343.05822-.0675.02472-.02826.064-.07251.008-.009q.11811-.13239.24006-.26117l.013-.01374.0686-.07153.0238-.0246.066-.06738.02716-.02747.06562-.06543.02813-.02783.06665-.06518.027-.026.06928-.06623.02307-.02179.07446-.06976.01141-.0105q.17909-.16553.36487-.32373l.00812-.007q.0411-.035.08252-.06939l.01922-.01606q.03947-.03286.07929-.06524l.02283-.01862.079-.06366.02307-.01831.08087-.06372.02-.0155.08532-.0658.01166-.00879q.24765-.18841.50531-.36389l.00458-.00311q.04734-.03224.095-.0639l.01514-.01014.09179-.0603.01813-.01178q.04578-.02976.092-.05908l.01721-.01087q.04734-.03.09491-.0595l.01154-.00715q.32153-.19875.65631-.37731l.00293-.00159q.05274-.02811.10577-.0556l.01154-.006q.05136-.02673.10309-.05285l.01367-.0069q.05191-.02619.10413-.05188l.01074-.00525q.05437-.02673.10895-.05286l.00085-.00036q.34717-.166.70636-.30975l.00293-.00116q.05685-.02271.11407-.04487l.00959-.00372q.056-.02169.1123-.04272l.01032-.00391q.05712-.02133.1145-.04211l.00476-.00171q.42407-.15336.86261-.27478l.00488-.00135q.05961-.01647.11951-.03228l.00976-.00257q.05933-.01564.1189-.0307l.00848-.00213a11.88767,11.88767,0,0,1,4.58881-.23529l.00226.0003q.09.013.17956.02741l.00946.00152q.27366.044.54316.10065l.01452.00305q.08259.0174.16474.036l.01458.0033q.17817.04046.35444.08636l.00647.00171q.08083.02106.16119.04334l.02789.00775q.07472.02087.14905.0426l.02087.0061q.16965.05008.33728.10511l.02723.00909q.06856.02271.13678.0462l.036.01245q.07058.02454.14087.05l.021.00757q.08359.0305.16669.0622h.00006a11.8472,11.8472,0,0,1,3.31555,1.93438l.00159.00135q.05776.0477.11481.09613l.03271.02795.08264.07117.03992.035.07446.06586.04218.03784.07147.06494.04217.03882.07111.06635.04041.03808.07367.07056.03625.035q.04184.04074.08319.08191l.02509.02478q.10848.10831.21411.21936l.02917.03095.07483.07983.036.03912.067.07337.03784.04217.06409.07215.0379.04321.06342.0733.03643.0426c.02191.0257.04358.05158.06525.07746l.03278.03924q.03688.04459.07336.0896l.02289.02808q.09632.1193.18957.24115l.02594.03424q.03306.04348.0658.08728l.03174.043.05865.08.03351.04651.05573.07818.03344.04761.055.07947.0321.04681.056.08337.02918.04364q.0314.04743.06225.09534l.021.03235q.083.12909.16284.26056l.02283.03809q.02792.04641.05548.093l.02771.04743.04919.08508.029.051.04651.083.02887.05237.04553.08386.02765.05158.04621.088.025.0481c.01709.03308.03387.06634.0506.09967l.0188.037q.06874.13788.134.27778l.01929.042c.015.03253.03.06506.04474.09772l.02294.05163.03943.08936.02387.05536.03692.087.02363.05682.03576.08759.02252.056.03589.09155.02045.05261c.01312.03418.02594.06855.03876.10291l.01556.04175q.02691.07316.05286.1466l.00024.00055q.02563.0726.05029.14576l.01508.04553q.017.0508.03357.10187l.01764.05529.02923.09308.01807.05921.027.09063.01764.06037.02582.09112.01666.05994.02539.0946.015.05658.0268.10572.01153.04589q.01878.07636.03656.15308l.00019.00086q.01758.07579.034.1521l.01032.04876c.00745.035.01489.07007.022.10517l.01166.05877.01868.09613.01166.06256.01678.09357.011.06378.01556.09412.01.063.01471.09753.00879.05988c.00513.03589.01.07184.01471.10785l.00665.0498q.02032.15793.03638.3172l.00488.05121q.00522.0541.01007.10828l.00507.06134.00781.09912.00458.06518.00616.09625.00385.06647.00482.09668.00293.06561.00354.10016.002.0622c.001.0368.00171.07367.00238.11053l.001.05207q.00109.08148.00116.16314Zm7.92273-.39392q-2.28168.249-4.60718.34271V155.18658a15.07957,15.07957,0,0,0-3.3078-9.43915q-.22019-.27575-.45282-.541l-.011-.01257q-.22806-.25956-.46778-.50849l-.025-.02588q-.16818-.17394-.34192-.34253l-.03235-.03143q-.05218-.05035-.10492-.10022l-.04358-.041q-.16287-.15307-.3302-.30127l-.06152-.05432-.09369-.08149-.07135-.06091q-.06977-.05941-.14026-.118c-.03033-.02515-.06061-.05036-.09112-.07532q-.04138-.03387-.08307-.06726-.04386-.03543-.088-.07043l-.07946-.06287q-.06363-.0498-.12781-.099l-.08417-.0639q-.05841-.04413-.11719-.08783l-.07116-.05231q-.05732-.04183-.11493-.08325l-.06165-.04419q-.08478-.06015-.17029-.1192l-.05145-.035q-.06611-.04522-.13275-.08978l-.06165-.041q-.07251-.04788-.14563-.09509l-.03833-.02484q-.0911-.05832-.183-.1153l-.05127-.03155q-.07123-.04377-.14288-.08679l-.05494-.0329q-.09467-.05631-.19006-.11133V98.16406c0-.04846.00073-.09674.00183-.145l.00141-.04559c.001-.03333.00225-.06653.00384-.09973l.00269-.05176q.00266-.04815.0061-.09607l.00354-.049c.00293-.03742.00635-.07471.01-.11194l.00287-.03046q.00723-.07058.01611-.14062l.00513-.03778q.00677-.05154.0144-.10285l.00775-.04968q.00733-.046.01526-.09192l.00891-.05011q.00888-.04862.01862-.097l.00824-.04145q.014-.068.02954-.13549l.00568-.02356q.01318-.05613.02734-.11176l.01233-.04687q.01163-.04442.024-.08844l.01428-.05036.026-.08716.01428-.04663q.01713-.05429.03522-.10821l.00757-.023q.02178-.06418.045-.12763l.0163-.04364q.01593-.04266.03241-.085l.01983-.05011.03241-.079.02076-.04944q.01821-.04257.03717-.08484l.018-.04052q.02738-.06025.056-.11982l.01917-.03894q.02033-.04148.04113-.08276l.02558-.04944.0379-.07165.02741-.0506.0401-.07166.02679-.04706c.01819-.03149.0368-.06274.05554-.09387l.0293-.048q.02582-.042.05231-.08368l.03149-.04858.04236-.06434.03454-.051.04242-.06122.03534-.05.04761-.06524.03186-.04334q.03772-.05027.07642-.09967l.038-.04761.04572-.05676.04181-.05041.04443-.05249.0434-.0503.04577-.05157.04358-.04859c.02027-.02215.04077-.044.06128-.06585q.0336-.03561.06775-.07074l.04742-.04859.04963-.04925.04534-.04425.05146-.04907.04547-.04236.05273-.0484.04633-.04114q.04953-.04377.1-.08655l.04505-.03808.0578-.04719.04541-.03656.05914-.04638.04547-.03485.06086-.04584.04412-.03223q.11207-.08148.22791-.158l.04352-.02868.06671-.04248.04535-.02839.06781-.04132.04455-.02636.07068-.04126.03143-.01758q.07463-.042.15052-.082l.03772-.0199c.02441-.01263.04907-.025.07367-.03729l.04553-.02271.07355-.0354.046-.02154c.02508-.01166.05017-.02326.07544-.03455l.04071-.01782q.09-.03956.18145-.0763l.009-.00372c.02661-.01062.0534-.02081.0802-.03107l.04541-.01727.07806-.02844.04834-.017.07868-.02692.0465-.01513a6.12592,6.12592,0,0,1,3.398-.106h.00006l.06867.01837.06592.01789.07.02026.06354.019.0697.02179.06275.02039.069.02319.06244.022.06775.02436.066.02514q.05785.02215.11511.04547l.06555.0268.06543.02826.06073.02661.06531.02978.05945.02778.06457.03106.05921.02948.063.032.061.03217.05981.03186q.05566.03048.11066.06195l.05829.03418.05945.03522.05908.03625.05713.03571.05841.03753.05652.03724.057.03827.05738.03979.0542.038c.02337.01672.0465.03381.06964.05084q.03945.029.07837.05871c.02111.01606.04223.032.06305.0484l.051.04053.05548.04468.05109.04242.05371.04541.05.04321.05395.04791.04743.04267.0592.05511.0401.03754q.0467.04467.09247.09033l.04053.04114.05487.05621.0429.04535.05066.05438.04248.04676.04975.05609.04046.04632.05213.06165.03564.04248q.04166.05071.08234.10223l.02576.03345c.01928.02478.03851.04968.05743.07483l.03381.04572.04731.06481.03454.04871.04474.06451.03326.049q.02289.034.04517.06854l.03.04608c.01819.0285.036.05725.05371.086l.01868.03009q.03478.05732.0683.11536l.024.04241c.01465.02582.02924.05164.04346.07764l.02661.04932.03864.07318.02606.05084c.01269.0249.02508.05.03741.07507l.024.04926q.02023.0423.03973.085l.01862.04028q.028.06208.05475.12494l.01275.031c.01355.03241.02692.06482.03992.09747l.01868.048.03137.08246.019.05194.02875.08143.01764.05169c.0097.02887.019.05792.02832.087l.01477.04638q.01821.05888.03528.11841l.00464.01575q.01913.06711.03662.13483l.01092.0437c.00781.03113.0155.06225.02289.09356l.01184.05213q.00988.04358.0191.0874l.01105.05377q.009.04468.01721.08966l.0094.051c.00611.03448.01178.06915.01728.10394l.006.03687q.01071.0704.01983.14135l.00391.03327q.00678.05475.01257.10968l.005.051c.003.03119.00586.06238.00836.09369l.00415.0553q.0033.046.00586.0921l.00293.05469c.00159.03308.00275.06622.00378.09936l.00153.047q.00174.07325.00183.14673Zm7.63281-103.68658V179.15191q-2.13372.48845-4.31726.83912v-81.827a9.447,9.447,0,0,0-7.915-9.30963v-32.656q0-.08916.00122-.178l.001-.0581c.00067-.03992.00141-.07977.00244-.11963l.002-.06854.0036-.10907.003-.07172.00494-.1062.00379-.07184.00647-.10687.00451-.06958q.00385-.05649.00824-.11273l.00482-.06256q.00542-.0672.01166-.13416l.00354-.04022q.00825-.08753.01752-.17468l.00415-.03681q.00741-.06838.0155-.13653l.00739-.05957q.007-.05687.01446-.11371l.00891-.06537.01514-.10785.00989-.06677.01648-.10712.01044-.06518.01861-.11091.01032-.05987c.00726-.04138.01483-.0827.02246-.1239l.00842-.04584q.03232-.1713.06885-.341l.00879-.0398q.014-.06426.02856-.12835l.01239-.05341q.01337-.05749.0271-.11475l.014-.05719.02789-.11145.01459-.0567.02991-.11322.01428-.053q.01676-.06115.034-.12195l.012-.04266q.02215-.07726.0451-.1543l.00269-.009q.05016-.16736.10443-.333l.01135-.03418q.02124-.06417.043-.12811l.01508-.04364q.0205-.0595.0415-.11884l.01642-.04577q.02124-.05905.043-.11792l.01605-.04334q.02316-.06207.047-.1239l.01348-.03516q.02793-.07214.05671-.144l.00537-.01355q.06573-.1636.13543-.32519l.00116-.0025q.03315-.07681.0672-.15308l.01136-.02521q.02938-.06537.05932-.13049l.01477-.0318q.029-.06253.0586-.12463l.01532-.032q.03048-.06363.06164-.12683l.01306-.02661q.03471-.07.07013-.13965l.0058-.01153q.11976-.23466.248-.46418l.00018-.0003q.04139-.07407.08374-.14752l.00922-.016q.03826-.06637.07727-.13233l.012-.02014q.03864-.0651.078-.12976l.01081-.0177q.042-.06876.08477-.137l.00458-.00739q.232-.3696.48621-.72333l.00592-.00818q.0477-.06629.09613-.132l.00708-.00959q.04953-.067.09979-.13342l.00287-.00378q.31668-.41786.66357-.81055l.00275-.00311q.05676-.06428.11438-.12787l.00153-.00171q.41088-.45346.86017-.86987l.00061-.00055a13.945,13.945,0,0,1,3.44427-2.34436l.0011-.00055a13.8051,13.8051,0,0,1,1.31964-.55085l.01642-.00585q.05795-.0207.11627-.04084l.02576-.00891q.05538-.01913.11114-.03772l.03131-.01044.10816-.0354.03467-.0111.10656-.0337.03626-.01116.10638-.03235.03583-.01062c.036-.01062.072-.02124.10815-.03162l.03077-.00873c.038-.0108.07605-.0216.11419-.0321l.00934-.0025q.18805-.05165.37824-.09809l.04254-.01044.08868-.02093.06134-.01434.08216-.01844.0686-.01519.07861-.01679.07282-.0152.07629-.01544.076-.015.07428-.01416.079-.01465.07239-.013.08172-.01416.07038-.0119.08545-.01374.06744-.01068.09082-.01355.06268-.00921.10163-.01392.05267-.00714q.07717-.01017.15466-.01941Zm0-37.67823a17.07027,17.07027,0,0,0-4.459,1.04413V39.01752a6.12632,6.12632,0,0,1,4.459-5.88721Zm3.31415-5.942a6.12631,6.12631,0,0,1,4.459,5.88721v1.09893a17.07044,17.07044,0,0,0-4.459-1.04413Zm4.41675,65.03375v78.71643q-2.17475.78525-4.41675,1.42249V42.40692q.07755.00924.15472.01941l.05256.00714.10174.01392.06262.00921.09089.01355.06738.01062.08551.0138.07031.0119.08173.01416.07238.013.079.01465.07416.01416.07617.015.07612.01538.073.01532.07837.01673.06885.01525.082.01838.06165.0144.08838.02087.04315.01056q.18942.04633.37695.09778l.01013.00275q.057.01566.11371.032l.03125.00879.10779.03156.03619.01074q.0531.01584.10608.03222l.03656.0113.10633.03356.035.01124.10785.03527.03161.01056q.05557.01859.1109.0376l.02607.009q.05812.02014.116.04071l.01661.006a13.80353,13.80353,0,0,1,1.31964.55084l.00085.00043a13.944,13.944,0,0,1,3.44434,2.34442l.00049.00042q.44905.41611.86053.87024l.001.00116q.05794.06391.115.1286l.00207.00232q.3469.39276.66407.81122l.00226.003q.05062.06684.10046.13428l.00653.00885q.04871.06611.09674.13281l.00531.00739q.25434.35385.48663.72394l.004.0064q.043.06876.08539.13807l.01025.01684q.03965.06519.07862.13074l.01141.01922q.03938.06648.07794.13337l.00867.015q.17349.30166.33221.61267l.00519.01032q.0358.07013.07068.1408l.01282.026q.03131.06363.062.1275l.015.03137q.02967.06244.05884.12512l.01459.0315q.03012.06537.05963.1311l.01105.02454q.03442.07709.06793.1546l.00037.00091q.06986.16178.13568.32563l.00494.01251q.02894.07233.05713.145l.01325.03467q.0239.06207.04724.12451l.01587.04278q.02178.05915.04315.11847l.01623.04529q.02115.05959.04175.11945l.01489.04309q.02188.06417.04316.12866l.01116.03369q.0543.16571.1045.33325l.00238.00812q.02316.07746.04541.15533l.01178.04169q.01729.06133.03418.12293l.01416.05249q.0152.05667.03.11352l.01458.0567q.01419.05566.028.11164l.01391.05688.02722.1153.01227.05273q.01466.06436.02869.12885l.00867.03955q.03652.16974.0689.34106l.00837.04547q.01144.062.02252.12421l.01025.05975.01868.11109.01038.06506.01654.10718.00982.06677q.00787.05384.0152.10785l.00891.06537q.00751.05694.01447.114l.00732.05914q.00814.06822.01556.13678l.00416.03669q.00924.08715.01751.17468l.00354.04022c.004.04468.008.08936.01166.13416l.00476.06256c.00287.03753.00574.07507.0083.11273l.00452.06958.00641.10687.00384.07184.00495.1062.00293.07172q.0021.05447.00366.10907l.002.06854c.001.03986.00171.07971.00238.11963l.001.0581q.0011.08882.00122.178V88.87115A9.44725,9.44725,0,0,0,172.59969,98.16406Zm7.81555,56.23029q-.00458.08742-.00793.175l-.00171.04407q-.0033.08752-.00568.17536l-.00006.001q-.0022.08762-.00342.17554l-.00055.04437c-.00067.05884-.00116.1178-.00116.17682V173.4884q-2.19434,1.12647-4.47949,2.09351V98.16406c0-.04883.00073-.09747.00183-.14606l.00153-.04663c.001-.03314.00219-.06628.00378-.09924l.00281-.05383q.00266-.0466.00592-.093l.004-.05365c.00256-.03247.00555-.06488.0086-.09723l.00446-.04669q.00714-.06812.01562-.13574l.00074-.00641q.009-.0705.01971-.14044l.00739-.04627c.005-.03149.01013-.06293.01562-.0943l.00971-.05328q.00805-.04386.01678-.0874l.01093-.05378q.00942-.045.01959-.08978l.01092-.0484q.01383-.05933.02887-.11823l.00537-.0213q.01675-.0649.035-.12921l.01422-.04883c.0083-.02838.01666-.0567.02533-.0849l.01727-.05493.02545-.07831.0188-.05572.02771-.07861.019-.05256q.01758-.0476.03608-.09478l.02044-.05207q.02088-.05237.04267-.10424l.02337-.05426.03125-.07129.02668-.05854.03082-.06585.0285-.05933.03192-.06421.02967-.05853.03564-.06757q.02546-.04779.05176-.09509c.01251-.02258.025-.04517.03778-.0675l.03589-.06141.03253-.05493.03839-.0628.03217-.05146.04058-.06353.03174-.0481.04334-.06482.02746-.03961q.05127-.074.10456-.14642l.015-.02063c.01734-.02326.035-.04621.05255-.06922l.0282-.03674q.02619-.03369.05292-.06689l.0293-.03644.05517-.067.0271-.032q.02976-.03516.05988-.06983l.01294-.01458q.10913-.12406.22473-.24207l.01916-.01965q.03443-.0348.0694-.069l.02313-.02258q.03534-.03434.07123-.06812l.01953-.01813q.17021-.15865.3523-.30432l.00732-.00586q.04284-.03414.08643-.06756l.01532-.01172q.04348-.03324.08752-.06568l.0105-.00763q.24216-.17733.50171-.331l.00775-.00458q.0509-.03.10235-.05908l.00263-.00146a6.09885,6.09885,0,0,1,.55-.27424l.00281-.00122a6.06852,6.06852,0,0,1,.70043-.25579l.00251-.00074a6.11743,6.11743,0,0,1,3.77.09687l.02734.0097q.04614.01657.092.03394l.03186.01214q.04587.01758.09137.03583l.02533.01038q.158.06444.31158.13726l.00843.00391c.03009.01434.05993.029.08972.04388l.02966.01478q.04257.02142.08466.04345l.03137.0166c.02838.01508.0567.03022.08478.04572l.022.01227q.14172.07891.27875.165l.02344.01464q.03927.02491.07812.05054l.033.02173.07489.05054.03265.02264c.02521.01758.05042.03522.07538.05316l.02106.01532q.12617.09156.24744.18921l.03253.02618.06573.05457.03614.03058.06359.05493.035.03107c.02136.019.04272.038.06378.05731l.023.02142q.06528.06043.12885.12274l.02911.02839.0567.05737.03723.03808.05371.05652.03809.0409.05188.0567.03778.0426.05048.05737.03527.04175q.04468.05283.0882.10657l.03918.04858.04377.05622.03894.05072.042.05615.03882.05322.03991.05567.04084.05877.03558.05176q.03516.05209.06921.105l.03248.05145.03967.06348.03308.05475.037.06268.03174.055.037.06616.02887.05249c.015.02765.02961.05554.04413.08343l.02588.05q.02619.05145.05145.10346l.02344.04937.035.07489.024.05347.03229.07373.02264.053q.01675.04.0329.08044l.01886.04682q.02454.06243.04779.12549l.00989.02771c.01233.03411.02441.06823.03619.1026l.01624.0487.02728.08386.0163.05243.0249.08368.01471.05084q.01337.0477.02594.09577l.01038.03888q.01711.06683.03283.13428l.00769.03454c.00769.03418.01526.06842.0224.10278l.01.04969c.006.03.01178.05993.01728.09009l.0094.05236q.00806.046.01532.09217l.00769.04858q.0086.05723.01611.11481l.00354.02588q.00888.0704.01617.14123l.00385.04071q.005.05118.00915.10248l.00379.05176q.00339.047.006.09418l.00281.05285q.00228.04971.00378.09961l.00141.046c.00116.0484.00189.09693.00189.14557v43.803q-.07095.03983-.1413.0805l-.0365.02118q-.06481.03754-.12921.07569l-.012.00708q-.06949.04139-.13849.08349l-.0351.02143q-.06089.03735-.12152.07525l-.01867.0116q-.06831.04295-.13611.08655l-.03308.02136q-.05841.03782-.1164.076l-.02307.0152q-.06729.04449-.134.08978l-.03022.02057q-.05694.03873-.11346.078l-.02563.01776q-.06637.04623-.13215.0932l-.02648.019q-.05649.04047-.11261.08149l-.02643.01928q-.06575.04816-.13086.097l-.02124.016q-.057.04295-.11341.08624l-.02679.02057q-.065.05017-.12946.10089l-.01483.01178q-.05813.046-.11578.09247l-.02649.02136q-.06437.05218-.12823.105l-.00641.00538q-.06061.05016-.12055.10107l-.02539.02148q-.12661.10767-.25079.218l-.02381.02118q-.12459.11115-.2467.225l-.02161.0202q-.12267.11481-.24286.2323l-.01928.01892q-.05741.0564-.11432.11334l-.005.005q-.06024.06042-.11969.12152l-.01672.01721q-.0552.05676-.10974.11408l-.00855.009q-.05895.062-.11718.12469l-.01355.01465q-.05356.05787-.10663.11627l-.01111.01215q-.05768.06372-.11462.12805l-.00959.0108q-.05282.05988-.105.12018l-.01263.01459q-.0564.06537-.11212.13135l-.00495.00592q-.05264.06243-.10461.12549l-.01373.01666q-.055.06693-.10932.1344A15.07854,15.07854,0,0,0,180.41524,154.39435Zm20.6142,2.69085v-5.17682a1.65778,1.65778,0,0,0-3.31555,0v8.81519a67.54085,67.54085,0,0,1-5.52424,5.04419V151.90838a1.65778,1.65778,0,0,0-3.31555,0v16.39838q-2.4894,1.78683-5.14337,3.347V154.49054l.00159-.02729.00653-.1.00439-.06262c.00269-.03632.00568-.07257.00873-.10883l.00433-.05292q.007-.07992.01508-.15954l.00012-.00116q.00825-.08038.01752-.1604l.00616-.051c.0044-.03638.00879-.07263.01349-.10889l.00812-.06048.01373-.09924.00928-.06318.01489-.097.01-.0625.0166-.09894.01026-.0592c.00635-.036.013-.0719.01971-.10779l.0091-.04907q.02992-.15675.064-.31214l.01026-.04559q.01217-.05466.02484-.10919l.0133-.05585.024-.09882.01471-.05859.02484-.09637.01532-.058.02692-.09845.015-.05414c.01026-.03631.02075-.07244.03137-.10864l.01239-.04248q.04513-.15207.09418-.30237l.01276-.03833q.0183-.05538.03711-.11059l.01715-.04975q.0172-.04962.03479-.09906l.019-.05273.03534-.09637.01941-.052.03784-.09881.01849-.04761q.02162-.05493.0437-.10962l.01423-.03534q.05978-.14649.12335-.29108l.01324-.02978q.025-.05649.05054-.11261l.01953-.04254.04639-.09961.02179-.0459.04657-.09656.02215-.04522q.02454-.04973.04956-.09913l.02039-.04034q.02847-.05576.05749-.11121l.01392-.02661q.07389-.14045.15143-.27856l.01184-.02075q.03222-.05731.06512-.11414l.02057-.03522q.02911-.04989.0586-.09942l.02343-.03907q.02894-.04806.05829-.09582l.02375-.03851q.03057-.04935.06164-.09833l.02118-.03345q.03552-.05567.07178-.111l.01227-.019q.08752-.13321.17852-.264l.00849-.01209q.0401-.0575.08081-.11444l.02032-.02813q.03543-.04926.07135-.09815l.02393-.03235q.03487-.04724.07031-.09405l.02429-.032q.03672-.04824.074-.09606l.02112-.02723q.04275-.05475.08618-.10888l.00976-.01221q.10044-.12506.2041-.24731l.00452-.00531q.04788-.05631.09644-.11207l.01947-.02215q.04157-.04752.08368-.09467l.02429-.027q.04056-.04513.0816-.08984l.02478-.02685q.04257-.04616.08563-.09174l.02076-.022q.04953-.05218.09961-.10382l.00756-.00776q.11234-.11553.22785-.2279l.00122-.00122q.05484-.05338.11041-.106l.01917-.01807q.04706-.04449.0946-.08838l.025-.02307q.04558-.04192.09167-.08331l.02564-.02307q.04759-.04257.09564-.08466l.0213-.01867q.05511-.04808.11084-.0954l.00665-.00568a11.8457,11.8457,0,0,1,3.56476-2.08447l.00006-.00006.09595-.03479.031-.01117.089-.03119.03827-.01324.08673-.02936.04065-.01349.08667-.02832.04-.01276.08863-.02783.03472-.01056.09516-.02881.00287-.00079q.16689-.04944.33581-.09393l.04071-.01081.08411-.02142.04907-.01233.081-.01971.05273-.01258.07953-.01843.05475-.01233.07885-.01733.05567-.01178.07886-.01648.05487-.01093q.08119-.01611.16284-.03113l.04468-.0083.07232-.01263.06519-.01123.07092-.0116.06744-.01074.06977-.01056.06958-.01025.0686-.00959.07178-.00964.06689-.00861.07575-.00921.0636-.00745.085-.00921.05493-.00586q.06867-.007.13751-.01313l.041-.00341.10058-.00837.056-.004.08649-.006.05945-.00366.08386-.00482.06036-.00305.08417-.00373.05957-.00231.08716-.00281.05664-.00159.09589-.00183.04809-.00079q.07115-.00082.14252-.00092h.00159a11.78269,11.78269,0,0,1,4.066.71954q.27182.0997.53735.21222.46453.19684.90832.43146.06336.03351.12629.06769a11.9083,11.9083,0,0,1,2.62762,1.94043q.10172.09924.201.20093a11.93141,11.93141,0,0,1,1.10107,1.30188q.084.115.16517.23211.04063.0585.08056.11762.07983.1181.15692.23816.11563.18017.22486.36468.2591.43789.48089.89911A67.34115,67.34115,0,0,1,201.02944,157.0852Zm7.15735-10.24994a15.15188,15.15188,0,0,0-16.72443-6.24231V98.16406a9.44755,9.44755,0,0,0-7.73163-9.27808V56.19842q0-.0639-.00049-.12768a66.9542,66.9542,0,0,1,24.45655,90.76452Z"/>
    <path class="cls-1" d="M125.28542,61.24438a4.00425,4.00425,0,0,1,6.236,3.149c-.0014.05713-.00213.11432-.00213.17218a1.66061,1.66061,0,0,0,3.32122,0c0-.05786-.00073-.11505-.00213-.17218a4.00541,4.00541,0,0,1,6.23749-3.149,1.65739,1.65739,0,1,0,1.85528-2.74695A7.31458,7.31458,0,0,0,133.18,59.92877a7.31465,7.31465,0,0,0-9.75128-1.43134,1.6578,1.6578,0,1,0,1.85675,2.74695Z"/>
    <path class="cls-1" d="M179.97927,104.31616h4.10418a1.65778,1.65778,0,1,0,0-3.31555h-4.10418a1.65778,1.65778,0,1,0,0,3.31555Z"/>
    <path class="cls-1" d="M179.97927,111.01568h4.10418a1.65778,1.65778,0,1,0,0-3.31555h-4.10418a1.65778,1.65778,0,1,0,0,3.31555Z"/>
    <path class="cls-1" d="M179.97927,117.71521h4.10418a1.65778,1.65778,0,1,0,0-3.31555h-4.10418a1.65778,1.65778,0,1,0,0,3.31555Z"/>
    <path class="cls-1" d="M179.97927,124.41473h4.10418a1.65778,1.65778,0,1,0,0-3.31555h-4.10418a1.65778,1.65778,0,1,0,0,3.31555Z"/>
    <path class="cls-1" d="M179.97927,131.11426h4.10418a1.65778,1.65778,0,1,0,0-3.31556h-4.10418a1.65778,1.65778,0,1,0,0,3.31556Z"/>
    <path class="cls-1" d="M185.74123,136.156a1.65766,1.65766,0,0,0-1.65778-1.65777h-4.10418a1.65778,1.65778,0,1,0,0,3.31555h4.10418A1.65767,1.65767,0,0,0,185.74123,136.156Z"/>
    <path class="cls-1" d="M153.172,101.00061h-4.10425a1.65778,1.65778,0,1,0,0,3.31555H153.172a1.65778,1.65778,0,0,0,0-3.31555Z"/>
    <path class="cls-1" d="M153.172,107.70013h-4.10425a1.65778,1.65778,0,1,0,0,3.31555H153.172a1.65778,1.65778,0,0,0,0-3.31555Z"/>
    <path class="cls-1" d="M153.172,114.39966h-4.10425a1.65778,1.65778,0,1,0,0,3.31555H153.172a1.65778,1.65778,0,0,0,0-3.31555Z"/>
    <path class="cls-1" d="M153.172,121.09918h-4.10425a1.65778,1.65778,0,1,0,0,3.31555H153.172a1.65778,1.65778,0,0,0,0-3.31555Z"/>
    <path class="cls-1" d="M153.172,127.7987h-4.10425a1.65778,1.65778,0,0,0,0,3.31556H153.172a1.65778,1.65778,0,0,0,0-3.31556Z"/>
    <path class="cls-1" d="M153.172,134.49823h-4.10425a1.65778,1.65778,0,1,0,0,3.31555H153.172a1.65778,1.65778,0,0,0,0-3.31555Z"/>
    <path class="cls-1" d="M159.07863,53.0874a1.65738,1.65738,0,0,0-1.6571,1.6571V84.97876a1.65708,1.65708,0,1,0,3.31415,0V54.7445A1.65737,1.65737,0,0,0,159.07863,53.0874Z"/>
    <path class="cls-1" d="M173.97316,53.0874a1.65737,1.65737,0,0,0-1.657,1.6571V84.97876a1.65708,1.65708,0,1,0,3.31415,0V54.7445A1.65739,1.65739,0,0,0,173.97316,53.0874Z"/>
  </g>
  <g>
    <g>
      <path class="cls-1" d="M281.15519,117.98584H232.63273a1.65235,1.65235,0,1,1,0-3.30469h48.52246a1.65235,1.65235,0,0,1,0,3.30469Z"/>
      <path class="cls-1" d="M261.38663,133.26123H229.93741a1.65235,1.65235,0,0,1,0-3.30469h31.44922a1.65235,1.65235,0,1,1,0,3.30469Z"/>
      <path class="cls-1" d="M261.38663,102.71045H229.93741a1.65235,1.65235,0,0,1,0-3.30469h31.44922a1.65235,1.65235,0,1,1,0,3.30469Z"/>
    </g>
    <g>
      <path class="cls-1" d="M67.21085,117.98584h-48.522a1.65235,1.65235,0,0,1,0-3.30469h48.522a1.65235,1.65235,0,1,1,0,3.30469Z"/>
      <path class="cls-1" d="M69.90665,102.71045H38.457a1.65235,1.65235,0,1,1,0-3.30469h31.4497a1.65235,1.65235,0,1,1,0,3.30469Z"/>
      <path class="cls-1" d="M69.90665,133.26123H38.457a1.65235,1.65235,0,1,1,0-3.30469h31.4497a1.65235,1.65235,0,1,1,0,3.30469Z"/>
    </g>
  </g>
</svg>
