<svg id="Layer_1" data-name="Layer 1" xmlns="http://www.w3.org/2000/svg" viewBox="0 0 300 260">
  <defs>
    <style>
      .cls-1 {
        fill: #fff;
      }
    </style>
  </defs>
  <title>Artboard 1 copyGenerosity-Logo</title>
  <g>
    <g>
      <path class="cls-1" d="M183.15058,55.46326a17.266,17.266,0,0,0-7.25189-10.17212V42.49359a9.4472,9.4472,0,0,0-7.7746-9.28515V19.157a1.65707,1.65707,0,0,0-3.31414,0v14.0514a9.44725,9.44725,0,0,0-7.7746,9.28515v2.79755a17.33443,17.33443,0,0,0-2.47363,1.97406c-1.52228-.11127-3.05823-.16791-4.69861-.16791a70.23048,70.23048,0,0,0-50.406,119.16882l.033.03394q.39432.40577.795.80524l.03173.03149q.18631.18558.37409.36969l.03412.03345q.39816.39.80255.77374l.05768.05469a70.68563,70.68563,0,0,0,13.01819,9.75354l.08013.04644q.15555.09037.31153.18l.11145.06366q.14081.08048.28192.16034l.12762.072q.134.07534.26844.15027l.13574.07544q.13174.073.26391.14544l.13807.07556q.13421.07324.26886.14582c.04406.0238.08807.04773.1322.07141q.1473.07909.29516.15747l.10566.05621q.202.10685.40454.21234h.00006q2.51276,1.30792,5.14026,2.41559l.01111.0047q.1983.08351.39721.16583l.01746.00721q.1962.0811.393.16113l.02063.00836q.19593.07956.3924.158l.02063.00818q.19729.07873.39514.15619l.01764.00689q.2.07828.40057.15534l.01306.005q.20353.07819.4076.15509l.007.00263q3.025,1.13955,6.17657,2.00354h.00018q.20371.05576.4079.11029l.0047.00122q.20316.05429.40674.1073l.00586.00153q.20352.053.40747.10479l.00549.00141q.20444.0519.40949.1026l.004.001q.20562.05091.4118.10059l.00262.00061q.20691.0498.41431.09845l.00079.00018q2.97932.69846,6.051,1.13935l.01654.00238q.17632.02517.353.04943l.03747.00513q.175.024.35016.04712l.02319.00305q.74195.0975,1.48871.17963l.01245.0014q.16.01758.32019.03424l.08789.00922q.14787.01537.29578.03l.111.01092q.143.014.28626.02747l.11737.01086q.14319.01319.2865.02588l.10095.00873q.47114.04065.94391.0752l.14368.01049q.11983.00852.23986.01642.08918.006.17835.0119.1139.00743.22784.01435l.19257.01166q.1095.00641.21912.01257.10281.00576.20562.01111.10437.00558.2088.01086.11417.00577.22846.01093c.06256.00293.12506.006.18768.00872q.19391.00852.38806.01606l.14173.00512q.14831.00542.29675.01038l.16785.00507q.12836.00384.25683.00732l.17584.00433q.126.003.25214.00562l.17444.00336q.12974.00228.25964.00409c.05518.00079.11035.00164.16553.00225q.14245.00174.2851.00275l.13971.00116q.21221.00118.42468.00134.21249,0,.42468-.00134l.13971-.00116q.14254-.00109.285-.00275c.05524-.00061.11042-.00146.16559-.00225q.12992-.00185.25965-.00409l.17443-.00336q.12608-.00257.25214-.00562l.17578-.00433q.12855-.00339.2569-.00732l.16785-.00507q.14848-.00484.29669-.01038l.142-.00512q.19409-.00751.38781-.01606c.06269-.00274.12525-.00579.18787-.00872q.11417-.00531.22827-.01093.10455-.00522.20886-.01086.10291-.0054.20557-.01111.10968-.006.21918-.01257.09632-.00568.1925-.01166.11408-.007.228-.01435.08907-.00576.17816-.0119.12-.00805.24-.01642l.14337-.01049q.47305-.03451.94428-.07526l.10089-.00861q.14337-.01263.28656-.02594l.11725-.0108q.14328-.01345.28637-.02753l.11084-.01092q.14805-.01474.296-.03l.08765-.00922q.1603-.01676.32037-.03424l.01215-.00134q.747-.082,1.48919-.17975l.02289-.003q.17534-.02307.35034-.04712l.03736-.00513q.17659-.02425.353-.04943l.01661-.00238q1.12353-.16068,2.23547-.35663l.00012-.00006q1.57206-.277,3.11987-.62317l.0199-.00446q.19712-.04413.39386-.08948l.02368-.00537q.19832-.04568.39618-.09259l.01923-.00451q.20187-.04779.40326-.09681l.01019-.00244q.20618-.05016.41181-.10156l.00018-.00006q3.09063-.77207,6.06952-1.81323l.00342-.00116q.20672-.07215.41284-.14557l.00586-.00208q.20479-.073.409-.14715l.00849-.00305q.203-.0738.40545-.14875l.01014-.00378q.20223-.075.4038-.15106l.00946-.0036q.20224-.07636.40375-.15394l.008-.00311q.2027-.078.40478-.15729l.00537-.00207q2.49106-.97733,4.88752-2.13605l.0003-.00012q.20325-.09823.4057-.19775l.07269-.03589q.16655-.082.33259-.16492l.10052-.05041q.15243-.07637.30444-.15345l.11274-.05737q.14647-.0747.2926-.15l.11664-.06031q.1452-.07525.29-.15112l.11445-.06q.14877-.07827.297-.15728l.10352-.05512q.16067-.08587.3208-.17261l.0769-.04156q3.06271-1.6626,5.93665-3.61359l.066-.04492q.17-.11572.33935-.2323l.07233-.04987q.17853-.12323.35626-.24755l.03949-.02759q.613-.42957,1.21649-.87171l.03156-.02319q.185-.13577.36914-.2727l.03687-.02741a70.81943,70.81943,0,0,0,6.33294-5.31757l.02448-.02325q.1886-.17826.37579-.358l.0517-.04956q.3976-.38223.78924-.77063l.06-.05969q.17423-.17313.34723-.34748l.044-.04425q.19518-.19712.389-.39575l.02777-.02862q.17359-.17835.34589-.35785l.0741-.07721a70.80352,70.80352,0,0,0,6.69275-8.12085q.33745-.47791.66717-.96155l.00043-.00067q.49218-.72208.96673-1.45685l.00867-.01349a70.245,70.245,0,0,0-25.78821-99.90295ZM98.66621,124.28748V160.4552a66.91528,66.91528,0,0,1,51.1969-110.04242c.73382,0,1.41864.012,2.08764.03558a17.10315,17.10315,0,0,0-2.68859,9.22614V92.38068a9.44782,9.44782,0,0,0-7.63282,9.25946v42.46508a15.0632,15.0632,0,0,0-2.88873-.53857V88.0824a14.81348,14.81348,0,1,0-29.627,0v26.82867a9.43429,9.43429,0,0,0-10.44745,9.37641Zm15.54706,2.37658H111.546a1.65778,1.65778,0,1,0,0,3.31555h2.66724v3.44111H111.546a1.65778,1.65778,0,1,0,0,3.31555h2.66724v3.44043H111.546a1.65778,1.65778,0,1,0,0,3.31555h2.66724v3.44043H111.546a1.65775,1.65775,0,1,0,0,3.31549h2.66724v3.44043H111.546a1.65778,1.65778,0,1,0,0,3.31555h2.66724v3.44043H111.546a1.65778,1.65778,0,1,0,0,3.31555h2.66724v3.4411H111.546a1.65778,1.65778,0,1,0,0,3.31555h2.66724v3.4914a67.431,67.431,0,0,1-12.23151-9.89954V124.28748a6.11635,6.11635,0,0,1,7.1319-6.03052q.30047.05044.59057.1297l.002.00055q.28665.07827.56176.18316l.01136.00434q.05209.02.10364.04077l.007.00281q.161.06537.31751.13946l.00445.00208q.04651.02216.09259.045l.024.012q.04422.02215.08814.045l.02124.01123q.13888.073.27337.153l.0257.01526c.02545.01526.05072.03082.07593.04645l.0357.02234c.02435.01532.04859.0307.07269.04638l.035.02308q.11865.07818.2334.1618l.03985.02911.06232.04682.04309.03308.06.04693.04376.03528q.03643.02949.07257.05951c.02521.02106.05042.04218.07526.06366l.05377.04724.04559.04041.05274.04822.0448.04168.05151.04889.045.044.04932.04858a6.09551,6.09551,0,0,1,1.78406,4.31275Zm8.04974,31.9986v19.69061q-2.41965-1.09928-4.73419-2.382V124.28748a9.441,9.441,0,0,0-5.09961-8.37574V88.0824a11.49792,11.49792,0,0,1,22.97723-.654h-7.75885a1.65778,1.65778,0,0,0,0,3.31555h7.77747v4.01538h-7.77747a1.65778,1.65778,0,0,0,0,3.31555h7.77747v4.01532h-7.77747a1.65778,1.65778,0,0,0,0,3.31555h7.77747v4.01532h-7.77747a1.65778,1.65778,0,0,0,0,3.31555h7.77747V116.752h-7.77747a1.65775,1.65775,0,1,0,0,3.31549h7.77747v4.01539h-7.77747a1.65778,1.65778,0,0,0,0,3.31555h7.77747v4.01605h-7.77747a1.65778,1.65778,0,0,0,0,3.31555h7.77747v4.01532h-7.77747a1.65778,1.65778,0,0,0,0,3.31555h7.77747v1.57886A15.177,15.177,0,0,0,122.263,158.66266Zm26.99139,25.64447q-2.91083-.0261-5.75988-.29749V155.38446a1.65778,1.65778,0,0,0-3.31556,0v28.22705q-2.801-.4076-5.52429-1.04394V155.38446a1.65778,1.65778,0,1,0-3.31555,0v26.31915q-2.93738-.84694-5.76056-1.951v-21.09q0-.073.00092-.14569l.00079-.04511.00189-.10016.00153-.05444.00293-.09039.00226-.058.0039-.08679.003-.05908.00495-.08594.00366-.05859.0061-.087.00421-.0567.00751-.09137.0044-.05133.01019-.10638.00348-.03583q.00723-.07114.01538-.14209l.00323-.02734c.00446-.038.009-.07587.0138-.11371l.00653-.0495.01221-.09125.00793-.05542.01245-.085.00891-.05774.01319-.0824.0097-.05847.0141-.08185.01025-.05761.01551-.08368.01037-.05487.01776-.0893.00977-.04852c.00775-.03778.01581-.07544.02393-.1131l.00512-.024q.01493-.06812.03058-.136l.01-.04242.02222-.09333.01324-.05334.02057-.082.01477-.05676.02069-.07825.01581-.058.02124-.07654.01654-.05823.02222-.07617.017-.0575.02368-.07769.017-.055.02673-.08392.01532-.04791q.02115-.06474.04291-.12909l.01019-.02954q.01721-.05035.03479-.10059l.01868-.05218.02783-.07734.02112-.05706.02685-.07184.02246-.05878.027-.06964.0235-.05939.02747-.0683.02423-.05944.02838-.06812.02466-.05859.02972-.069.02472-.05689.033-.0741.02271-.05084q.02727-.06006.05517-.11981l.02527-.05341.03308-.06964.02869-.059.03106-.06329.03034-.06061.0307-.06079.03155-.0614.03089-.05933.03247-.06146.03125-.05835.03339-.06152.03161-.05738.0343-.06164.03186-.05609.03528-.06195.03113-.05335q.03717-.06354.075-.12658l.02777-.04633.0398-.06476.03106-.05035.04-.06366.03193-.05036.04077-.06335.03235-.04974.04174-.06324.03235-.04852.043-.06366.032-.04681.04456-.06446.03094-.04406.04682-.06623.027-.03753q.09246-.12826.18811-.25409l.01788-.02356.05438-.07044.02777-.0357.05262-.06659.03051-.03833.05274-.06525.03125-.03833.05353-.06482.03119-.03729.05517-.06543.02936-.0343.05823-.06751.02472-.02826.064-.07251.00806-.009q.1181-.13238.24-.26117l.013-.01373.0686-.07153.02381-.0246.066-.06738.02716-.02747.06561-.06543.02814-.02783.06665-.06519.027-.026.06928-.06622.02307-.02179.07446-.06976.01142-.0105q.17907-.16553.36486-.32373l.00812-.007q.04111-.035.08252-.0694l.01923-.01605q.03945-.03286.07928-.06525l.02283-.01861.079-.06366.02307-.01831.08087-.06372.02-.01551.08533-.06579.01166-.00879q.24765-.18841.50531-.36389l.00457-.00311q.04734-.03223.095-.06391l.01514-.01013.0918-.0603.01813-.01178q.04576-.02976.092-.05908l.01721-.01087q.04733-.03.09491-.05951l.01153-.00714q.32154-.19876.65631-.37732l.00293-.00159q.05274-.0281.10578-.0556l.01153-.006q.05136-.02673.10309-.05286l.01367-.00689q.05192-.02619.10413-.05188l.01074-.00525q.05439-.02673.10895-.05286l.00085-.00037q.34717-.166.70636-.30975l.00293-.00116q.05686-.02269.11408-.04486l.00958-.00372q.056-.0217.1123-.04273l.01032-.0039q.05714-.02133.1145-.04212l.00476-.00171q.42408-.15334.86261-.27478l.00488-.00134q.05961-.01648.11951-.03229l.00977-.00256q.05933-.01566.11889-.0307l.00849-.00214a11.88818,11.88818,0,0,1,4.5888-.23529l.00226.00031q.09.013.17957.0274l.00946.00153q.27364.044.54315.10064l.01453.00306q.08257.01739.16473.036l.01459.00329q.17815.04047.35443.08637l.00647.00171q.08083.02106.16119.04333l.0279.00775q.0747.02088.149.04261l.02088.0061q.16965.05008.33728.1051l.02722.0091q.06857.02269.13678.0462l.036.01245q.07059.02454.14087.05l.021.00757q.08358.03048.16668.06219h.00006a11.84671,11.84671,0,0,1,3.31555,1.93439l.00159.00134q.05777.0477.11481.09613l.03271.028.08265.07116.03991.035.07447.06585.04217.03785.07147.06494.04218.03882.0711.06634.04041.03809.07367.07055.03625.035q.04185.04074.08319.08191l.02509.02478q.1085.1083.21411.21936l.02918.03094.07483.07984.03594.03912.067.07336.03784.04218.06409.07214.0379.04322.06342.0733.03644.0426q.03286.03855.06524.07745l.03278.03925q.0369.04458.07336.0896l.02289.02808q.09632.11928.18958.24115l.02594.03424q.033.04349.06579.08728l.03174.043.05866.08.0335.04651.05573.07819.03345.04761.055.07946.0321.04682.056.08337.02918.04364q.03139.04743.06225.09534l.021.03235q.083.12909.16284.26056l.02283.03808q.02793.04643.05548.093l.02771.04742.04919.08509.029.051.04651.083.02886.05237.04554.08386.02765.05157.0462.088.025.04809q.02563.04962.0506.09967l.0188.037q.06876.13788.134.27777l.01929.042c.015.03254.03.06507.04474.09772l.023.05164.03943.08935.02386.05536.03693.087.02362.05682.03577.08759.02252.056.03589.09155.02044.05261c.01312.03418.02594.06854.03876.10291l.01556.04174q.02693.07315.05286.14661l.00024.00055q.02563.0726.0503.14575l.01507.04553q.017.05082.03357.10187l.01764.0553.02924.09308.01806.0592.027.09064.01764.06036.02582.09113.01666.05994.02539.0946.015.05658.02679.10571.01154.0459q.01876.07635.03656.15308l.00018.00085q.01758.07581.03406.1521l.01031.04877c.00745.035.0149.07007.022.10516l.01165.05878.01868.09613.01166.06256.01678.09357.011.06378.01556.09412.01.063.01471.09754.00879.05987c.00513.03589.01.07184.01471.10785l.00666.04981q.02032.15792.03637.3172l.00489.0512q.0052.05412.01007.10828l.00506.06134.00781.09912.00458.06519.00617.09625.00384.06647.00482.09668.00293.06561.00354.10016.002.06219q.00145.05522.00238.11054l.001.05206q.00111.08148.00116.16315Zm7.92273-.39392q-2.28167.249-4.60717.34271V158.66266a15.07963,15.07963,0,0,0-3.3078-9.43915q-.22018-.27576-.45282-.541l-.011-.01258q-.22806-.25955-.46778-.50848l-.025-.02588q-.16818-.174-.34192-.34253l-.03235-.03143q-.05218-.05035-.10492-.10022l-.04357-.041q-.16288-.15307-.3302-.30127l-.06153-.05432-.09369-.08148-.07135-.06091q-.06977-.05943-.14026-.11805c-.03033-.02514-.0606-.05035-.09112-.07531-.02759-.02259-.05536-.04492-.08307-.06726q-.04386-.03543-.088-.07044l-.07947-.06286q-.06363-.04981-.12781-.099l-.08417-.06391q-.05841-.04413-.11718-.08783l-.07117-.0523q-.05731-.04185-.11493-.08326l-.06165-.04419q-.08477-.06015-.17028-.1192l-.05146-.035q-.06609-.04522-.13275-.08978l-.06164-.041q-.07251-.04788-.14563-.09509l-.03833-.02484q-.09109-.05832-.18305-.1153l-.05127-.03155q-.07122-.04377-.14288-.0868l-.05493-.03289q-.09466-.05631-.19007-.11133V101.64014c0-.04847.00074-.09674.00184-.145l.0014-.0456c.001-.03332.00226-.06652.00384-.09973l.00269-.05175q.00266-.04817.0061-.09607l.00354-.049c.00293-.03742.00635-.07471.01-.11194l.00287-.03046q.00723-.07059.01611-.14062l.00513-.03779q.00678-.05154.01441-.10284l.00775-.04968q.00732-.046.01526-.09192l.00891-.05011q.00888-.04861.01861-.097l.00824-.04144q.014-.068.02954-.1355l.00568-.02356q.01319-.05612.02734-.11175l.01233-.04688q.01162-.0444.024-.08844l.01428-.05035.026-.08716.01429-.04663q.01712-.05428.03521-.10822l.00757-.023q.02179-.06417.045-.12762l.0163-.04364q.01593-.04266.03241-.085l.01984-.05011.03241-.079.02075-.04944c.01214-.02838.0246-.05664.03717-.08484l.018-.04053q.02738-.06024.056-.11981l.01917-.03894q.02033-.04147.04114-.08276l.02557-.04944.0379-.07166.02741-.0506.0401-.07165.02679-.04706c.01819-.03149.03681-.06274.05555-.09387l.02929-.048q.02582-.042.05231-.08367l.03149-.04859.04236-.06433.03455-.051.04242-.06122.03534-.05.0476-.06525.03186-.04333q.03772-.05027.07642-.09967l.038-.04761.04571-.05676.04181-.05042.04443-.05249.0434-.05029.04578-.05158.04357-.04858c.02027-.02215.04078-.044.06128-.06586q.0336-.03561.06775-.07074l.04743-.04858.04962-.04926.04535-.04425.05145-.04907.04547-.04236.05274-.0484.04632-.04113q.04953-.04377.1-.08655l.045-.03809.0578-.04718.04541-.03656.05915-.04639.04547-.03485.06085-.04583.04413-.03223q.11205-.08148.2279-.158l.04352-.02869.06671-.04248.04535-.02838.06781-.04132.04456-.02637.07068-.04126.03143-.01757q.07461-.042.15051-.082l.03772-.01989c.02441-.01264.04907-.025.07367-.0373l.04553-.0227.07355-.0354.046-.02155c.02509-.01165.05017-.02325.07544-.03454l.04071-.01783q.09-.03954.18146-.07629l.009-.00372c.02661-.01062.05341-.02082.0802-.03107l.04541-.01727.07807-.02844.04834-.017.07867-.02692.04651-.01514a6.126,6.126,0,0,1,3.398-.10595h.00006l.06866.01837.06592.01788.07.02027.06354.019.0697.02179.06274.02038.069.0232.06244.022.06775.02435.066.02515q.05785.02215.11511.04547l.06555.02679.06543.02826.06073.02662.06531.02978.05945.02777.06457.03107.05921.02948.06305.032.061.03217.05982.03186q.05566.03048.11065.062l.05829.03418.05945.03521.05908.03626.05713.0357.05841.03754.05652.03723.057.03827.05737.0398.0542.038c.02338.01673.04651.03381.06964.05084q.03946.029.07837.05872c.02112.01605.04224.032.06305.0484l.051.04053.05548.04468.05109.04241.05371.04542.05.04321.054.04791.04742.04266.0592.05512.0401.03754q.04669.04467.09247.09033l.04053.04114.05487.05621.04291.04535.05066.05438.04248.04675.04974.05609.04047.04633.05212.06165.03565.04248q.04165.05071.08233.10223l.02576.03345c.01929.02478.03851.04968.05743.07483l.03382.04571.0473.06482.03455.04871.04473.06451.03327.049q.02289.03406.04516.06854l.03.04609c.01819.0285.036.05725.05371.086l.01868.0301q.03478.0573.0683.11535l.024.04242c.01464.02582.02923.05164.04345.07764l.02661.04931.03864.07319.02606.05084c.0127.0249.02509.05.03742.07507l.024.04926q.02023.04228.03974.085l.01861.04028q.028.06207.05475.12494l.01276.03094c.01355.03241.02691.06482.03991.09748l.01868.048.03137.08246.019.05194.02875.08142.01764.0517c.00971.02887.019.05792.02832.087l.01477.04639q.01823.05888.03528.11841l.00464.01575q.01914.06709.03662.13482l.01093.0437q.01171.04669.02288.09357l.01184.05212q.0099.04359.01911.08741l.01105.05377q.009.04467.01721.08966l.0094.051c.0061.03449.01178.06916.01727.10395l.006.03686q.01071.07041.01984.14136l.0039.03326q.00678.05475.01258.10968l.00494.051c.003.03119.00586.06238.00836.09369l.00415.0553q.0033.046.00586.0921l.00293.05469c.00159.03308.00275.06622.00379.09936l.00152.047c.00116.04883.00183.09765.00183.14673Zm7.63282-103.68659V182.628q-2.13373.48843-4.31726.83911v-81.827a9.447,9.447,0,0,0-7.915-9.30963V59.6745q0-.08918.00122-.178l.001-.0581c.00068-.03992.00141-.07978.00245-.11963l.002-.06855.0036-.10907.003-.07171.005-.1062.00378-.07184.00647-.10687.00452-.06958q.00384-.05649.00824-.11274l.00482-.06256c.0036-.0448.00757-.08947.01166-.13415l.00354-.04022q.00824-.08752.01751-.17469l.00415-.0368q.00742-.06838.01551-.13654l.00738-.05957q.007-.05685.01447-.11371l.00891-.06536.01513-.10785.00989-.06678.01648-.10711.01044-.06519.01861-.1109.01032-.05987c.00726-.04139.01483-.08271.02246-.12391l.00842-.04583q.03232-.1713.06885-.341l.00879-.03979q.014-.06427.02856-.12836l.01239-.0534q.01338-.0575.0271-.11475l.014-.05719.02789-.11145.01459-.0567.02991-.11322.01428-.053q.01675-.06116.034-.122l.012-.04266q.02215-.07728.04511-.1543l.00268-.009q.05017-.16737.10443-.333l.01135-.03418q.02124-.06419.043-.12811l.01508-.04364q.02051-.05952.0415-.11884l.01642-.04578q.02124-.059.043-.11792l.016-.04333q.02316-.06207.047-.1239l.01349-.03516q.02791-.07214.0567-.144l.00537-.01355q.06573-.16361.13544-.3252l.00116-.0025q.03313-.07681.0672-.15307l.01135-.02521q.02938-.06537.05933-.1305l.01477-.03179q.029-.06254.05859-.12464l.01532-.032q.03048-.06363.06165-.12683l.01306-.02661q.0347-.07.07013-.13965l.0058-.01154q.11975-.23465.248-.46417l.00018-.0003q.04139-.07407.08374-.14753l.00922-.016q.03826-.06638.07727-.13232l.012-.02014q.03864-.0651.078-.12976l.0108-.0177q.042-.06876.08478-.137l.00458-.00738q.232-.3696.4862-.72333l.00592-.00818q.0477-.06629.09613-.132l.00708-.00958q.04953-.067.09979-.13342l.00287-.00379q.31668-.41784.66358-.81054l.00274-.00312q.05677-.06426.11438-.12787l.00153-.00171q.4109-.45345.86017-.86987l.00061-.00055a13.94545,13.94545,0,0,1,3.44427-2.34436l.0011-.00055a13.80868,13.80868,0,0,1,1.31964-.55084l.01642-.00586q.058-.02069.11627-.04083l.02576-.00891q.0554-.01914.11115-.03772l.03131-.01044.10815-.0354.03467-.01111.10657-.03369.03625-.01117.10639-.03235.03582-.01062c.036-.01062.072-.02124.10816-.03161l.03076-.00873c.038-.0108.07605-.02161.1142-.03211l.00933-.0025q.18805-.05163.37824-.09808l.04254-.01044.08868-.02093.06135-.01435.08215-.01843.0686-.0152.07862-.01678.07281-.0152.07629-.01544.076-.015.07428-.01416.079-.01465.07239-.013.08173-.01416.07037-.0119.08545-.01373.06744-.01068.09082-.01355.06269-.00922.10162-.01391.05267-.00715q.07719-.01016.15467-.0194Zm0-37.67822a17.06994,17.06994,0,0,0-4.459,1.04413V42.49359a6.12633,6.12633,0,0,1,4.459-5.88721Zm3.31414-5.942a6.12633,6.12633,0,0,1,4.459,5.88721v1.09894a17.06994,17.06994,0,0,0-4.459-1.04413Zm4.41675,65.03376v78.71643q-2.17474.78525-4.41675,1.42248V45.883q.07755.00924.15473.0194l.05255.00715.10175.01391.06262.00922.09088.01355.06738.01062.08551.01379.07031.0119.08173.01416.07239.013.079.01465.07416.01416.07617.015.07611.01538.07306.01532.07837.01672.06884.01526.082.01837.06165.01441.08838.02087.04315.01056q.18942.04632.37695.09778l.01014.00274q.05694.01566.1137.032l.03125.00879.10779.03155.0362.01074q.0531.01584.10608.03223l.03656.01129.10632.03357.035.01123.10785.03528.03162.01056q.05558.01858.1109.0376l.02606.009q.05814.02014.116.04071l.0166.006a13.80761,13.80761,0,0,1,1.31964.55084l.00086.00043a13.94436,13.94436,0,0,1,3.44433,2.34442l.00049.00043q.44907.4161.86053.87024l.001.00116q.058.0639.115.1286l.00208.00232q.34689.39276.66406.81122l.00226.003q.05062.06683.10046.13428l.00653.00885q.0487.06609.09674.13281l.00531.00738q.25434.35385.48664.72394l.004.00641q.043.06876.08538.13806l.01026.01685q.03965.06518.07861.13073l.01142.01923q.03936.06646.07794.13336l.00866.015q.17351.30166.33222.61267l.00519.01031q.03579.07014.07067.14081l.01282.026q.03132.06363.06195.1275l.015.03138q.02965.06243.05884.12512l.01458.03149q.03012.06537.05963.13111l.01105.02453q.03442.07709.06793.1546l.00037.00092q.06986.16177.13568.32562l.00495.01251q.02892.07233.05712.145l.01325.03467q.02389.06207.04724.12451l.01587.04279q.02179.05915.04315.11847l.01624.04529q.02115.0596.04174.11944l.0149.04309q.02187.06418.04315.12866l.01117.0337q.05428.16571.10449.33325l.00238.00812q.02316.07745.04541.15533l.01178.04169q.01731.06133.03418.12292l.01416.05249q.0152.05667.03.11353l.01459.0567q.01419.05566.02795.11163l.01392.05689.02722.11529.01227.05274q.01464.06435.02868.12884l.00867.03955q.03652.16974.06891.34107l.00836.04547q.01145.062.02252.12421l.01026.05975.01867.11108.01038.06507.01654.10717.00983.06678q.00786.05383.01519.10785l.00891.06536q.00752.057.01447.114l.00732.05914q.00816.06821.01557.13678l.00415.03668q.00924.08716.01752.17469l.00354.04022c.004.04468.008.08935.01165.13415l.00476.06256c.00287.03754.00574.07508.0083.11274l.00452.06958.00641.10687.00385.07184.00494.1062.00293.07171q.0021.05448.00366.10907l.002.06855c.001.03985.0017.07971.00238.11963l.001.0581q.00111.08882.00122.178V92.34723A9.44726,9.44726,0,0,0,172.54084,101.64014Zm7.81555,56.23028q-.00458.08743-.00793.175l-.00171.04407q-.0033.08752-.00568.17535l-.00006.001q-.00219.08761-.00341.17554l-.00055.04437q-.001.08826-.00116.17682v18.30182q-2.19434,1.12645-4.4795,2.0935V101.64014c0-.04883.00074-.09748.00183-.14606l.00153-.04663c.001-.03314.0022-.06629.00378-.09924l.00281-.05384q.00265-.04659.00592-.093l.004-.05364c.00256-.03248.00556-.06489.00861-.09723l.00445-.0467q.00714-.06812.01563-.13574l.00073-.00641q.009-.07049.01971-.14044l.00739-.04626c.005-.0315.01013-.06293.01562-.0943l.00971-.05329q.00806-.04384.01678-.0874l.01093-.05377q.00944-.045.01959-.08978l.01093-.0484q.01381-.05933.02887-.11823l.00537-.0213q.01675-.0649.035-.12921l.01422-.04883c.0083-.02838.01667-.0567.02533-.0849l.01728-.05493.02545-.07831.0188-.05572.02771-.07862.019-.05255q.01758-.04761.03607-.09479l.02045-.05206q.02087-.05236.04266-.10425L176.356,99.22l.03125-.07129.02667-.05853.03082-.06586.02851-.05932.03192-.06421.02966-.05853.03564-.06757q.02546-.04779.05176-.09509c.01251-.02259.025-.04517.03778-.06751l.03589-.0614.03253-.05493.03839-.06281.03217-.05145.04059-.06354.03174-.04809.04333-.06482.02747-.03961q.05127-.074.10455-.14643l.015-.02063c.01733-.02325.035-.0462.05255-.06921l.02819-.03674q.02619-.03369.05292-.0669l.0293-.03644.05517-.06695.0271-.03205q.02976-.03514.05988-.06982l.01294-.01459q.10913-.124.22473-.24206l.01917-.01966q.03441-.03478.06939-.069l.02314-.02258q.03533-.03433.07122-.06811l.01953-.01813q.1702-.15867.3523-.30432l.00732-.00586q.04286-.03415.08643-.06757l.01532-.01172q.04348-.03323.08752-.06567l.0105-.00763q.24216-.17733.50171-.331l.00775-.00458q.05091-.03.10236-.05908l.00262-.00147a6.09877,6.09877,0,0,1,.55-.27423l.00281-.00122a6.068,6.068,0,0,1,.70044-.2558l.0025-.00073a6.11752,6.11752,0,0,1,3.77.09686l.02734.00971q.04614.01656.092.03393l.03186.01215q.04587.01758.09137.03583l.02533.01037q.158.06445.31159.13727l.00842.00391c.03009.01434.05994.029.08972.04388l.02967.01477q.04257.02142.08465.04346l.03137.0166c.02838.01508.05671.03021.08478.04572l.022.01226q.14174.07893.27875.165l.02344.01465q.03927.0249.07812.05054l.033.02173.07489.05053.03266.02265c.0252.01757.05041.03521.07538.05316l.02105.01532q.12616.09154.24744.18921l.03253.02618.06574.05457.03613.03058.0636.05493.035.03106c.02136.019.04273.038.06378.05732l.023.02142q.06528.06042.12885.12274l.02911.02838.0567.05738.03724.03808.05371.05652.03808.04089.05188.0567.03778.04261.05048.05737.03528.04175q.04467.05283.08819.10657l.03919.04858.04376.05621.03894.05072.042.05616.03882.05322.03992.05566.04083.05878.03558.05176q.03516.0521.06922.105l.03247.05145.03967.06348.03308.05475.037.06268.03174.055.037.06616.02887.05249c.01495.02765.0296.05555.04413.08344l.02587.05q.02619.05145.05146.10345l.02343.04938.035.07489.02405.05347.03228.07373.02265.053q.01675.04.0329.08044l.01886.04681q.02453.06244.04779.12549l.00988.02771c.01233.03412.02442.06824.0362.1026l.01623.04871.02729.08386.01629.05243.0249.08368.01471.05084q.01338.0477.02594.09577l.01038.03887q.01711.06684.03284.13428l.00769.03455c.00769.03418.01526.06842.0224.10278l.01.04968c.006.03.01178.05994.01727.09009l.0094.05237q.00806.046.01532.09216l.00769.04859q.00861.05721.01611.1148l.00354.02588q.00888.07041.01618.14124l.00384.04071q.005.05118.00916.10248l.00378.05175q.00339.047.006.09418l.00281.05286q.0023.04971.00379.09961l.0014.046c.00116.0484.00189.09692.00189.14557v43.803q-.071.03983-.1413.0805l-.03649.02118q-.06483.03753-.12922.07568l-.012.00708q-.0695.04139-.13849.0835l-.03509.02142q-.06089.03736-.12152.07526l-.01868.0116q-.0683.04293-.13611.08654l-.03308.02137q-.05841.0378-.11639.076l-.02308.0152q-.06729.04451-.134.08979l-.03021.02056q-.057.03873-.11347.078l-.02563.01776q-.06638.04623-.13214.0932l-.02649.019q-.05649.04047-.11261.08148l-.02643.01929q-.06573.04815-.13086.097l-.02124.016q-.05694.04293-.1134.08624l-.0268.02057q-.065.05017-.12945.10089l-.01483.01178q-.05814.046-.11579.09247l-.02649.02136q-.06435.05219-.12823.105l-.00641.00537q-.06061.05017-.12054.10108l-.0254.02148q-.12661.10767-.25079.218l-.0238.02118q-.1246.11113-.24671.225l-.0216.02021q-.12268.11479-.24286.2323l-.01929.01892q-.0574.05638-.11432.11334l-.005.005q-.06024.06044-.11969.12153l-.01673.01721q-.0552.05676-.10974.11407l-.00854.009q-.059.062-.11719.1247l-.01355.01465q-.05356.05785-.10663.11627l-.01111.01215q-.05767.06372-.11462.128l-.00958.0108q-.05283.05988-.105.12018l-.01264.01459q-.0564.06535-.11212.13134l-.00494.00592q-.05265.06244-.10462.12549l-.01373.01666q-.055.06693-.10932.1344A15.07866,15.07866,0,0,0,180.35639,157.87042Zm20.6142,2.69086v-5.17682a1.65778,1.65778,0,1,0-3.31555,0v8.81519a67.54268,67.54268,0,0,1-5.52423,5.04419V155.38446a1.65778,1.65778,0,1,0-3.31555,0v16.39838q-2.48941,1.78683-5.14338,3.347V157.96661l.00159-.02728.00653-.1.0044-.06262c.00268-.03631.00567-.07257.00872-.10882l.00434-.05292q.007-.07992.01507-.15955l.00013-.00116q.00824-.08038.01751-.1604l.00617-.051c.00439-.03638.00879-.07263.01349-.10889l.00811-.06048.01374-.09925.00927-.06317.0149-.097.01-.0625.0166-.09893.01025-.05921c.00635-.036.013-.0719.01972-.10779l.00909-.04907q.02994-.15673.064-.31213l.01025-.04559q.01218-.05466.02484-.1092l.01331-.05584.024-.09882.01471-.05859.02484-.09638.01532-.058.02692-.09845.015-.05414c.01025-.03632.02075-.07245.03137-.10864l.01239-.04248q.04514-.15207.09417-.30237l.01276-.03833q.01831-.05539.03711-.1106l.01715-.04974q.01722-.04962.03479-.09906l.019-.05273.03534-.09638.01941-.052.03784-.09882.0185-.0476q.0216-.05495.0437-.10962l.01422-.03534q.05979-.14649.12335-.29108l.01325-.02978q.025-.05649.05053-.11261l.01953-.04255.04639-.09961.02179-.04589.04657-.09656.02216-.04523q.02452-.04971.04956-.09912l.02038-.04034q.02847-.05576.0575-.11121l.01391-.02661q.07389-.14045.15143-.27857l.01184-.02075q.03223-.05732.06513-.11413l.02057-.03522q.02911-.04989.05859-.09943l.02344-.03906q.02892-.04806.05829-.09582l.02374-.03852q.03057-.04935.06164-.09833l.02118-.03344q.03554-.05566.07178-.111l.01227-.019q.08752-.1332.17853-.264l.00848-.01209q.0401-.05749.08081-.11444l.02033-.02814q.03543-.04924.07135-.09814l.02392-.03235q.03489-.04724.07031-.09406l.0243-.032q.03671-.04824.074-.09607l.02112-.02722q.04275-.05475.08618-.10889l.00977-.0122q.10042-.12507.2041-.24732l.00451-.00531q.04789-.05631.09644-.11206l.01947-.02215q.04157-.04752.08368-.09467l.02429-.027q.04056-.04514.08161-.08984l.02478-.02686q.04257-.04614.08563-.09173l.02075-.022q.04953-.05219.09961-.10382l.00757-.00775q.11234-.11554.22784-.22791l.00122-.00122q.05484-.05337.11042-.106l.01916-.01807q.04706-.04449.0946-.08838l.025-.02307q.04559-.04193.09167-.08331l.02564-.02307q.04761-.04259.09564-.08466l.0213-.01868q.05513-.04806.11084-.0954l.00665-.00567a11.84574,11.84574,0,0,1,3.56476-2.08447l.00006-.00007.09595-.03479.031-.01116.08905-.03119.03827-.01325.08673-.02936.04065-.01349.08667-.02832.04-.01275.08862-.02783.03473-.01056.09515-.02881.00287-.00079q.16691-.04944.33582-.09394l.04071-.0108.0841-.02142.04907-.01233.081-.01972.05273-.01257.07953-.01843.05475-.01233.07886-.01734.05566-.01178.07886-.01648.05487-.01092q.08121-.01611.16284-.03113l.04468-.0083.07233-.01263.06518-.01123.07092-.0116.06745-.01074.06976-.01056.06958-.01026.06861-.00958.07177-.00964.0669-.00861.07574-.00922.0636-.00744.085-.00922.05493-.00586q.06867-.007.13751-.01312l.041-.00342.10059-.00836.056-.004.08648-.006.05945-.00366.08386-.00482.06037-.00306.08416-.00372.05957-.00232.08716-.00281.05664-.00158.09589-.00183.0481-.0008q.07113-.00082.14251-.00091h.00159a11.78265,11.78265,0,0,1,4.066.71954q.27182.0997.53735.21222.46455.19684.90833.43146.06334.03351.12628.06769A11.90723,11.90723,0,0,1,203.755,150.196q.10172.09925.201.20093a11.93339,11.93339,0,0,1,1.10108,1.30188q.084.115.16516.23212.04065.0585.08056.11761.07985.11811.15693.23816.11562.18018.22485.36469.2591.4379.4809.89911A67.3423,67.3423,0,0,1,200.97059,160.56128Zm7.15735-10.24994a15.15188,15.15188,0,0,0-16.72443-6.24231V101.64014a9.44753,9.44753,0,0,0-7.73163-9.27808V59.6745q0-.0639-.00048-.12769a66.95419,66.95419,0,0,1,24.45654,90.76453Z"/>
      <path class="cls-1" d="M125.22657,64.72046a4.00425,4.00425,0,0,1,6.236,3.14905c-.00141.05713-.00214.11432-.00214.17218a1.66062,1.66062,0,0,0,3.32123,0c0-.05786-.00074-.115-.00214-.17218a4.00541,4.00541,0,0,1,6.23749-3.14905,1.65739,1.65739,0,1,0,1.85528-2.747,7.31458,7.31458,0,0,0-9.75122,1.43134,7.31465,7.31465,0,0,0-9.75128-1.43134,1.6578,1.6578,0,1,0,1.85675,2.747Z"/>
      <path class="cls-1" d="M179.92042,107.79224h4.10419a1.65778,1.65778,0,0,0,0-3.31556h-4.10419a1.65778,1.65778,0,0,0,0,3.31556Z"/>
      <path class="cls-1" d="M179.92042,114.49176h4.10419a1.65778,1.65778,0,0,0,0-3.31555h-4.10419a1.65778,1.65778,0,1,0,0,3.31555Z"/>
      <path class="cls-1" d="M179.92042,121.19128h4.10419a1.65778,1.65778,0,0,0,0-3.31555h-4.10419a1.65778,1.65778,0,1,0,0,3.31555Z"/>
      <path class="cls-1" d="M179.92042,127.89081h4.10419a1.65778,1.65778,0,0,0,0-3.31555h-4.10419a1.65778,1.65778,0,1,0,0,3.31555Z"/>
      <path class="cls-1" d="M179.92042,134.59033h4.10419a1.65778,1.65778,0,0,0,0-3.31555h-4.10419a1.65778,1.65778,0,1,0,0,3.31555Z"/>
      <path class="cls-1" d="M185.68238,139.63208a1.65766,1.65766,0,0,0-1.65777-1.65778h-4.10419a1.65778,1.65778,0,0,0,0,3.31556h4.10419A1.65766,1.65766,0,0,0,185.68238,139.63208Z"/>
      <path class="cls-1" d="M153.11317,104.47668h-4.10425a1.65778,1.65778,0,0,0,0,3.31556h4.10425a1.65778,1.65778,0,0,0,0-3.31556Z"/>
      <path class="cls-1" d="M153.11317,111.17621h-4.10425a1.65778,1.65778,0,1,0,0,3.31555h4.10425a1.65778,1.65778,0,0,0,0-3.31555Z"/>
      <path class="cls-1" d="M153.11317,117.87573h-4.10425a1.65778,1.65778,0,1,0,0,3.31555h4.10425a1.65778,1.65778,0,0,0,0-3.31555Z"/>
      <path class="cls-1" d="M153.11317,124.57526h-4.10425a1.65778,1.65778,0,1,0,0,3.31555h4.10425a1.65778,1.65778,0,0,0,0-3.31555Z"/>
      <path class="cls-1" d="M153.11317,131.27478h-4.10425a1.65778,1.65778,0,1,0,0,3.31555h4.10425a1.65778,1.65778,0,0,0,0-3.31555Z"/>
      <path class="cls-1" d="M153.11317,137.9743h-4.10425a1.65778,1.65778,0,0,0,0,3.31556h4.10425a1.65778,1.65778,0,0,0,0-3.31556Z"/>
      <path class="cls-1" d="M159.01978,56.56348a1.65738,1.65738,0,0,0-1.6571,1.6571V88.45483a1.65708,1.65708,0,1,0,3.31415,0V58.22058A1.65737,1.65737,0,0,0,159.01978,56.56348Z"/>
      <path class="cls-1" d="M173.91432,56.56348a1.65737,1.65737,0,0,0-1.657,1.6571V88.45483a1.65708,1.65708,0,1,0,3.31415,0V58.22058A1.65738,1.65738,0,0,0,173.91432,56.56348Z"/>
    </g>
    <g>
      <g>
        <path class="cls-1" d="M62.58088,212.404H71.6188v.72158a14.93346,14.93346,0,0,1-.58021,4.36318,9.27664,9.27664,0,0,1-1.91293,3.28716,9.90719,9.90719,0,0,1-7.74881,3.42781,10.65185,10.65185,0,0,1-7.862-3.31388,11.41751,11.41751,0,0,1,12.94749-18.34591,13.827,13.827,0,0,1,4.17963,3.39968l-2.35179,2.25192a7.98351,7.98351,0,0,0-6.55884-3.58394,7.83858,7.83858,0,0,0-5.8225,2.394,7.99469,7.99469,0,0,0-2.35179,5.89354,8.217,8.217,0,0,0,7.93306,8.21719,6.59515,6.59515,0,0,0,4.37725-1.64428,5.84276,5.84276,0,0,0,2.16753-3.96654h-5.454Z"/>
        <path class="cls-1" d="M89.84094,205.02232H81.07237v5.25635h8.514v3.1029h-8.514v7.30995h8.76857V223.793H77.77115V201.92083H89.84094Z"/>
        <path class="cls-1" d="M96.17824,223.793V200.43267l15.95193,16.689V201.92083h3.30052V225.125L99.47947,208.47967V223.793Z"/>
        <path class="cls-1" d="M134.74292,205.02232h-8.76857v5.25635h8.514v3.1029h-8.514v7.30995h8.76857V223.793H122.67313V201.92083h12.06979Z"/>
        <path class="cls-1" d="M148.48934,214.47166l6.77194,9.32135h-4.03756l-6.24729-8.95282h-.595V223.793h-3.30122V201.92083h3.86807q4.3347,0,6.26135,1.62881a5.98607,5.98607,0,0,1,2.12463,4.788,6.21457,6.21457,0,0,1-1.33132,3.99466A5.92969,5.92969,0,0,1,148.48934,214.47166Zm-4.10789-2.50791h1.0479q4.68915,0,4.68951-3.584,0-3.35677-4.56152-3.35748h-1.17589Z"/>
        <path class="cls-1" d="M158.96267,212.75846A10.71644,10.71644,0,0,1,162.349,204.824a11.14214,11.14214,0,0,1,8.10326-3.31388,11.43857,11.43857,0,0,1,11.375,11.37494,10.75745,10.75745,0,0,1-3.37156,8.0048,11.55841,11.55841,0,0,1-15.781.36712A10.74471,10.74471,0,0,1,158.96267,212.75846Zm3.32936.0422a7.90445,7.90445,0,0,0,2.43688,5.96386,8.07,8.07,0,0,0,11.40378-.0422,8.49014,8.49014,0,0,0,.02813-11.7308,8.15664,8.15664,0,0,0-11.517,0A7.895,7.895,0,0,0,162.292,212.80066Z"/>
        <path class="cls-1" d="M200.34682,205.17845l-2.67741,1.58661a4.61183,4.61183,0,0,0-1.43048-1.69914,3.33832,3.33832,0,0,0-1.82784-.45432,3.379,3.379,0,0,0-2.28076.77924,2.41867,2.41867,0,0,0-.90653,1.927q0,1.60139,2.37992,2.57825l2.18159.89317a9.31587,9.31587,0,0,1,3.8962,2.62748,5.92143,5.92143,0,0,1,1.23216,3.80337,6.684,6.684,0,0,1-2.0114,4.98629,6.90588,6.90588,0,0,1-5.02919,1.98327,6.72624,6.72624,0,0,1-4.70288-1.68508,7.76229,7.76229,0,0,1-2.28146-4.74577l3.34342-.737a5.68562,5.68562,0,0,0,.79331,2.66264,3.76735,3.76735,0,0,0,5.53908.38259,3.57658,3.57658,0,0,0,1.02047-2.62045,3.69788,3.69788,0,0,0-.17723-1.16886,2.97068,2.97068,0,0,0-.55278-.97756,4.45052,4.45052,0,0,0-.97054-.83551,9.44035,9.44035,0,0,0-1.41642-.74407l-2.11056-.87771q-4.49082-1.89887-4.49118-5.55314a5.27055,5.27055,0,0,1,1.8841-4.12266,6.80986,6.80986,0,0,1,4.68951-1.671A6.54722,6.54722,0,0,1,200.34682,205.17845Z"/>
        <path class="cls-1" d="M210.197,201.92083V223.793h-3.30122V201.92083Z"/>
        <path class="cls-1" d="M223.48914,205.02232V223.793h-3.30052V205.02232h-5.0292v-3.10149h13.34485v3.10149Z"/>
        <path class="cls-1" d="M239.28916,214.34507l-7.13976-12.42424h3.79634l5.00106,8.74043,5.01513-8.74043h3.79634l-7.16859,12.42424V223.793h-3.30052Z"/>
      </g>
      <g>
        <g>
          <path class="cls-1" d="M39.09465,214.81346H13.16872a1.65272,1.65272,0,1,1,0-3.30544H39.09465a1.65272,1.65272,0,0,1,0,3.30544Z"/>
          <path class="cls-1" d="M40.535,206.65183H23.73137a1.65272,1.65272,0,0,1,0-3.30544H40.535a1.65272,1.65272,0,1,1,0,3.30544Z"/>
          <path class="cls-1" d="M40.535,222.9758H23.73137a1.65273,1.65273,0,0,1,0-3.30545H40.535a1.65273,1.65273,0,0,1,0,3.30545Z"/>
        </g>
        <g>
          <path class="cls-1" d="M286.83128,214.81346H260.90535a1.65272,1.65272,0,1,1,0-3.30544h25.92593a1.65272,1.65272,0,0,1,0,3.30544Z"/>
          <path class="cls-1" d="M276.26863,222.9758H259.465a1.65273,1.65273,0,0,1,0-3.30545h16.80361a1.65273,1.65273,0,0,1,0,3.30545Z"/>
          <path class="cls-1" d="M276.26863,206.65183H259.465a1.65272,1.65272,0,0,1,0-3.30544h16.80361a1.65272,1.65272,0,0,1,0,3.30544Z"/>
        </g>
      </g>
      <g>
        <g>
          <path class="cls-1" d="M100.41519,237.659h2.16893v.86715a4.52486,4.52486,0,0,1,1.0704-.88685,2.60135,2.60135,0,0,1,1.18574-.24122,2.87824,2.87824,0,0,1,2.51636,1.38828,3.25748,3.25748,0,0,1,2.76743-1.38828q3.17112,0,3.17182,3.847v5.80422h-2.17878V241.833a4.01933,4.01933,0,0,0-.32844-1.90872,1.18822,1.18822,0,0,0-1.10837-.569,1.41513,1.41513,0,0,0-1.30671.67516,4.35014,4.35014,0,0,0-.40931,2.16893v4.84986h-2.17878v-5.18674q0-2.50756-1.44666-2.50721a1.4506,1.4506,0,0,0-1.33554.685,4.272,4.272,0,0,0-.41916,2.15909v4.84986h-2.16893Z"/>
          <path class="cls-1" d="M130.8548,237.659h2.17878v9.39027H130.8548v-.9832a4.16621,4.16621,0,0,1-6.10311-.15472,5.23358,5.23358,0,0,1-1.2631-3.586,5.07383,5.07383,0,0,1,1.2631-3.51925,4.07186,4.07186,0,0,1,3.162-1.408,3.99354,3.99354,0,0,1,2.94114,1.35031Zm-5.14875,4.6663a3.27149,3.27149,0,0,0,.723,2.19776,2.36719,2.36719,0,0,0,1.87074.858,2.48749,2.48749,0,0,0,1.94739-.82917,3.56729,3.56729,0,0,0,0-4.35756,2.45568,2.45568,0,0,0-1.9284-.839,2.3986,2.3986,0,0,0-1.87.84887A3.12551,3.12551,0,0,0,125.70605,242.3253Z"/>
          <path class="cls-1" d="M143.67008,237.659H145.839v.83831a4.13813,4.13813,0,0,1,1.06055-.858,2.43682,2.43682,0,0,1,1.11823-.24122,3.5035,3.5035,0,0,1,1.79338.55981l-.993,1.98608a2.06847,2.06847,0,0,0-1.20473-.44377q-1.77439,0-1.77439,2.68022v4.86885h-2.16893Z"/>
          <path class="cls-1" d="M161.421,230.76539v9.93039l3.05648-3.03678h2.9116l-4.07835,3.94262,4.37725,5.44765h-2.81525l-3.10431-3.96231-.34742.34672v3.61559h-2.16893V230.76539Z"/>
          <path class="cls-1" d="M185.21739,242.86472h-6.729a2.85,2.85,0,0,0,.75181,1.8419,2.29143,2.29143,0,0,0,1.70617.67445,2.21867,2.21867,0,0,0,1.34046-.3854,5.48038,5.48038,0,0,0,1.18574-1.427l1.83206,1.02187a7.26432,7.26432,0,0,1-.89669,1.23919,4.75978,4.75978,0,0,1-1.01273.84816,4.05257,4.05257,0,0,1-1.16605.48738,5.6941,5.6941,0,0,1-1.35945.154,4.42011,4.42011,0,0,1-3.37436-1.34961,5.06247,5.06247,0,0,1-1.27295-3.60645,5.202,5.202,0,0,1,1.23427-3.60574,4.70183,4.70183,0,0,1,6.575-.038,5.19549,5.19549,0,0,1,1.19558,3.63458Zm-2.22661-1.77369a2.07873,2.07873,0,0,0-2.18862-1.73571,2.25281,2.25281,0,0,0-.74267.121,2.13488,2.13488,0,0,0-.63155.34672,2.20807,2.20807,0,0,0-.48668.545,2.53248,2.53248,0,0,0-.30874.723Z"/>
          <path class="cls-1" d="M197.89763,239.68305v7.36622h-2.16894v-7.36622h-.92552V237.659h.92552v-3.44259h2.16894V237.659h1.68718v2.02405Z"/>
        </g>
        <g>
          <path class="cls-1" d="M89.926,243.04757h-6.7213a1.08025,1.08025,0,0,1,0-2.16049H89.926a1.08025,1.08025,0,1,1,0,2.16049Z"/>
          <path class="cls-1" d="M216.79527,243.04757H210.074a1.08025,1.08025,0,1,1,0-2.16049h6.7213a1.08025,1.08025,0,0,1,0,2.16049Z"/>
        </g>
      </g>
    </g>
  </g>
</svg>
